<svg xmlns="http://www.w3.org/2000/svg" width="256" height="256" viewBox="0 0 256 256">
  <g fill="none" fill-rule="evenodd" transform="translate(38)">
    <path fill="#131313" fill-rule="nonzero" d="M142.396301,9.59543568 L127.365211,9.59543568 L143,26.8049793 L143,34.9896266 L110.789059,34.9896266 L110.789059,25.4045643 L126.423849,25.4045643 L110.789059,8.19502075 L110.789059,0 L142.406533,0 L142.396301,9.59543568 Z M104.393939,9.59543568 L89.3423849,9.59543568 L104.997639,26.8049793 L104.997639,34.9896266 L72.776466,34.9896266 L72.776466,25.4045643 L88.4112554,25.4045643 L72.776466,8.19502075 L72.776466,0 L104.393939,0 L104.393939,9.59543568 Z M66.759937,9.98962656 L50.5419126,9.98962656 L50.5419126,25.0103734 L66.759937,25.0103734 L66.759937,35 L39,35 L39,1.13686838e-13 L66.759937,1.13686838e-13 L66.759937,9.98962656 Z"/>
    <polygon fill="#1572B6" points="16.475 235.414 0 50 181 50 164.505 235.384 90.388 256"/>
    <polygon fill="#33A9DC" points="90 240 149.912 223.341 164 65 90 65"/>
    <polygon fill="#FFF" points="90 132.165 120.079 132.165 122.15 108.804 90 108.804 90 86 147 86 146.457 92.123 140.869 155 90 155"/>
    <polygon fill="#EBEBEB" points="90.949 191.145 90.846 191.145 65.476 184.258 63.852 166 41 166 44.196 201.947 90.866 215 91 215 91 191.145"/>
    <polygon fill="#FFF" points="118.151 154.01 115.408 184.454 90 191.298 90 215 136.695 202.071 137.034 198.224 141 154 118.151 154"/>
    <path fill="#EBEBEB" fill-rule="nonzero" d="M91,86 L91,108.821572 L36.0525747,108.821572 L35.5804825,103.695211 L34.5439323,92.1248695 L34,86 L91,86 Z M90.917897,132.178428 L90.917897,155 L65.8662225,155 L65.424919,149.873639 L64.3883687,138.303297 L63.8444364,132.178428 L90.9076341,132.178428 L90.917897,132.178428 Z"/>
  </g>
</svg>
