<svg xmlns="http://www.w3.org/2000/svg" width="256" height="256" viewBox="0 0 256 256">
  <g fill="none" fill-rule="evenodd">
    <polygon fill="#E44D26" points="219 51 202.511 235.479 128.389 256 54.472 235.507 38 51"/>
    <polygon fill="#F16529" points="128 240 187.906 223.439 202 66 128 66"/>
    <path fill="#EBEBEB" fill-rule="nonzero" d="M95.8426133,111.603639 L128,111.603639 L128,89 L71,89 L71.5437858,95.0640631 L77.131114,157.353768 L128,157.353768 L128,134.750129 L97.9202452,134.750129 L95.8426133,111.603639 Z M100.965873,168.655942 L78.1467977,168.655942 L81.3312189,204.147131 L127.895371,217 L128,216.97169 L128,193.454336 L127.900353,193.480523 L102.584419,186.683223 L100.965873,168.655942 Z"/>
    <path fill="#000" fill-rule="nonzero" d="M54,1 L65.54333,1 L65.54333,12.2276041 L76.1030232,12.2276041 L76.1030232,1 L87.6470645,1 L87.6470645,35 L76.1037345,35 L76.1037345,23.6148523 L65.5440413,23.6148523 L65.5440413,35 L54.0007112,35 L54.0007112,1 L54,1 Z M102.826223,12.2752173 L92.6655325,12.2752173 L92.6655325,1 L124.538779,1 L124.538779,12.2752173 L114.371687,12.2752173 L114.371687,35 L102.828357,35 L102.828357,12.2752173 L102.827646,12.2752173 L102.826223,12.2752173 Z M129.597076,1 L141.633292,1 L149.037239,12.9467029 L156.434074,1 L168.475268,1 L168.475268,35 L156.978879,35 L156.978879,18.1477408 L149.037239,30.2365831 L148.838093,30.2365831 L140.891474,18.1477408 L140.891474,35 L129.597076,35 L129.597076,1 Z M174.219906,1 L185.766792,1 L185.766792,23.761893 L202,23.761893 L202,35 L174.219195,35 L174.219195,1 L174.219906,1 Z"/>
    <path fill="#FFF" fill-rule="nonzero" d="M128.000712,157.359438 L156.020149,157.359438 L153.378298,186.67717 L128,193.482111 L128,217 L174.647763,204.156682 L174.98975,200.337307 L180.337575,140.824152 L180.892592,134.753923 L128.000712,134.753923 L128.000712,157.359438 Z M128.000712,111.550305 L128.000712,111.605514 L182.963039,111.605514 L183.419022,106.524812 L184.456383,95.0645661 L185,89 L128.000712,89 L128.000712,111.551013 L128.000712,111.550305 Z"/>
  </g>
</svg>
