<svg xmlns="http://www.w3.org/2000/svg" width="256" height="256" viewBox="0 0 256 256">
  <g fill="none" fill-rule="evenodd">
    <rect width="259" height="259" x="-3" fill="#F7DF1E"/>
    <path fill="#000" fill-rule="nonzero" d="M170.97972,202.678246 C176.206219,211.183012 183.006021,217.434343 195.032323,217.434343 C205.135239,217.434343 211.58908,212.402083 211.58908,205.448862 C211.58908,197.11649 204.95814,194.16527 193.83793,189.317718 L187.742407,186.711286 C170.147764,179.240883 158.459187,169.882357 158.459187,150.098104 C158.459187,131.873605 172.392399,118 194.167417,118 C209.669814,118 220.814735,123.377048 228.845998,137.455884 L209.859269,149.60555 C205.678894,142.135147 201.169031,139.192137 194.167417,139.192137 C187.025771,139.192137 182.499434,143.707215 182.499434,149.60555 C182.499434,156.895349 187.02989,159.846569 197.491125,164.361647 L203.586647,166.963974 C224.303186,175.817633 236,184.843685 236,205.136911 C236,227.014519 218.755437,239 195.59657,239 C172.952528,239 158.323274,228.245904 151.165153,214.15065 L170.97972,202.678246 Z M84.8475156,204.783914 C88.6778102,211.556532 92.1621426,217.282472 100.539368,217.282472 C108.550037,217.282472 113.603555,214.158859 113.603555,202.013298 L113.603555,119.38736 L137.985645,119.38736 L137.985645,202.341667 C137.985645,227.502968 123.18341,238.954849 101.577254,238.954849 C82.0551073,238.954849 70.7495604,228.886224 65,216.759134 L84.8475156,204.783914 Z"/>
  </g>
</svg>
