<svg xmlns="http://www.w3.org/2000/svg" width="256" height="256" viewBox="0 0 256 256">
  <g fill="none" fill-rule="evenodd">
    <path fill="#EA6618" d="M255.015504,235.553736 L255.015504,20.4472558 C255.015504,11.6222016 249.138419,4.1743876 241.087318,1.79299225 L231.943752,7.26424806 L130.471504,115.456 L127.290357,125.399318 L125.431876,134.944744 L157.074667,253.200868 L161.969426,255.00676 L235.561488,255.00676 C246.30555,255.00676 255.015504,246.297798 255.015504,235.553736"/>
    <path fill="#D65813" d="M1,20.4462636 L1,235.552744 C1,242.205767 4.34089922,248.074915 9.43410853,251.582512 L15.6723721,248.595845 L123.079256,133.600248 L127.290357,125.399318 L127.448124,117.471256 L98.2164961,6.25711628 L93.788093,0.992248062 L20.4540155,0.992248062 C9.70995349,0.992248062 1,9.70220155 1,20.4462636"/>
    <path fill="#E05E11" d="M127.290357,125.40031 L241.087318,1.792 C239.293174,1.26052471 237.431704,0.990828749 235.560496,0.991255814 L93.7900775,0.991255308 L127.291349,125.399318 L127.290357,125.40031 Z"/>
    <path fill="#DE5C16" d="M20.4540155,255.007752 L161.970419,255.007771 L127.290357,125.399318 L9.43311628,251.583504 C12.6732031,253.818791 16.5176925,255.013293 20.4540155,255.007752"/>
    <path fill="#FFF" fill-rule="nonzero" d="M95.1822016,97.2700775 L109.29693,97.2700775 C114.920992,118.490295 121.321984,137.110822 128.463194,153.912558 C136.552,135.010233 142.480682,116.375814 147.499473,97.2690853 L160.837271,97.2690853 C154.863938,121.009612 145.092279,144.936682 133.915597,169.633736 L122.117767,169.633736 C111.381643,146.230574 102.243039,122.167566 95.1822016,97.2690853 L95.1822016,97.2700775 Z M48.6259225,60.5023256 L80.0107287,60.5023256 L80.0107287,195.087876 L48.4870078,195.087876 L48.4870078,184.71293 L67.808062,184.71293 L67.808062,70.6004341 L48.6259225,70.6004341 L48.6259225,60.5023256 Z M207.553302,70.6004341 L188.371163,70.6004341 L188.371163,184.71293 L207.690233,184.71293 L207.690233,195.087876 L176.167504,195.087876 L176.167504,60.5023256 L207.55231,60.5023256 L207.55231,70.6004341 L207.553302,70.6004341 Z"/>
  </g>
</svg>
