<svg xmlns="http://www.w3.org/2000/svg" width="256" height="256" viewBox="0 0 256 256">
  <g fill="none" fill-rule="evenodd" transform="translate(71)">
    <path fill="#FFF" d="M62.239074,253 L55.4465338,250.700607 C55.4465338,250.700607 56.2760748,216.403549 43.8473243,213.942327 C35.5644832,204.422875 45.1760263,-189.763885 75,212.628134 C75,212.628134 64.7259014,217.714185 62.903425,226.413823 C60.913963,234.948075 62.239074,253 62.239074,253 Z"/>
    <path fill="#A6A385" d="M62.239074,253 L55.4465338,250.700607 C55.4465338,250.700607 56.2760748,216.403549 43.8473243,213.942327 C35.5644832,204.422875 45.1760263,-189.763885 75,212.628134 C75,212.628134 64.7259014,217.714185 62.903425,226.413823 C60.913963,234.948075 62.239074,253 62.239074,253 Z"/>
    <path fill="#FFF" d="M66.4184937,219.998221 C66.4184937,219.998221 125.786346,181.253737 111.893229,100.64621 C98.5000712,42.0411522 66.9148684,22.833466 63.4420372,15.445347 C59.6394841,10.1920084 56,1 56,1 L58.4818737,164.015385 C58.4818737,164.180831 53.3550573,213.922992 66.4202856,220"/>
    <path fill="#499D4A" d="M66.4184937,219.998221 C66.4184937,219.998221 125.786346,181.253737 111.893229,100.64621 C98.5000712,42.0411522 66.9148684,22.833466 63.4420372,15.445347 C59.6394841,10.1920084 56,1 56,1 L58.4818737,164.015385 C58.4818737,164.180831 53.3550573,213.922992 66.4202856,220"/>
    <path fill="#FFF" d="M52.2784762,222 C52.2784762,222 -3.14913642,184.205227 0.140875571,117.656154 C3.26513939,51.1053003 42.4084402,18.4050308 49.974042,12.4896368 C54.90906,7.23131096 55.0730259,5.25832585 55.40274,0 C58.8567179,7.39513283 58.199072,110.590445 58.6909698,122.748877 C60.1702276,169.580563 56.060386,213.12869 52.2784762,222 Z"/>
    <path fill="#58AA50" d="M52.2784762,222 C52.2784762,222 -3.14913642,184.205227 0.140875571,117.656154 C3.26513939,51.1053003 42.4084402,18.4050308 49.974042,12.4896368 C54.90906,7.23131096 55.0730259,5.25832585 55.40274,0 C58.8567179,7.39513283 58.199072,110.590445 58.6909698,122.748877 C60.1702276,169.580563 56.060386,213.12869 52.2784762,222 Z"/>
  </g>
</svg>
