<svg xmlns="http://www.w3.org/2000/svg" width="256" height="256" viewBox="0 0 256 256">
  <path fill="#E0234E" fill-rule="evenodd" d="M150.273479,1.26469508 C148.428096,1.26469508 146.714528,1.66014776 145.132754,2.18738945 C148.493983,4.42821559 150.339376,7.3940429 151.262098,10.7552821 C151.328189,11.2166227 151.45982,11.5461732 151.525808,12.0074985 C151.591899,12.4029511 151.657541,12.7983895 151.657541,13.1938402 C151.921293,18.9936263 150.141654,19.7185999 148.889447,23.1457566 C146.978137,27.5615312 147.505374,32.3068165 149.812128,36.1294228 C150.00986,36.5907511 150.273479,37.1180061 150.603036,37.5793599 C148.09854,20.9049284 162.004919,18.4004681 164.57525,13.1938402 C164.772972,8.64625925 161.0163,5.61454406 158.050504,3.50552325 C155.216513,1.79195104 152.646109,1.26469508 150.273479,1.26469508 Z M171.231852,5.02138594 C170.968121,6.53723946 171.165863,6.14179901 171.10015,6.93268908 C171.034161,7.45993179 171.034161,8.11901654 170.968437,8.64625925 C170.836725,9.17351624 170.704686,9.70075895 170.507066,10.2280394 C170.375364,10.7552821 170.17754,11.2825381 169.979829,11.8097798 C169.716077,12.3370612 169.518478,12.7983895 169.254849,13.3256445 C169.057137,13.5893806 168.925323,13.8528872 168.727601,14.1165346 C168.595888,14.3142533 168.46387,14.511973 168.332168,14.7096917 C168.002642,15.1710577 167.673085,15.632386 167.343569,16.0278234 C166.948105,16.4232761 166.618579,16.8846034 166.157208,17.2141652 C166.157208,17.280154 166.157208,17.280154 166.157208,17.280154 C165.761775,17.6096903 165.366331,18.0051287 164.905001,18.3346527 C163.520949,19.3891503 161.939205,20.1800394 160.489235,21.1686482 C160.027915,21.4981722 159.566534,21.7618206 159.171111,22.1572569 C158.70977,22.4867809 158.314316,22.816305 157.918893,23.2117556 C157.457522,23.607194 157.127996,24.0026447 156.732542,24.4639975 C156.403016,24.8594491 156.007583,25.3207795 155.743964,25.7821445 C155.414408,26.2434718 155.084892,26.7048266 154.821242,27.1661662 C154.557522,27.6934079 154.359902,28.1547739 154.096273,28.6820177 C153.898561,29.2092593 153.700819,29.6706274 153.569025,30.1978681 C153.371303,30.7910395 153.239489,31.3182955 153.107674,31.8455637 C153.041685,32.1092977 153.041685,32.4387085 152.975962,32.7023426 C152.909871,32.9660777 152.909871,33.2295853 152.844259,33.4932327 C152.844259,34.0204744 152.778271,34.6136458 152.778271,35.1408885 C152.778271,35.5363391 152.778271,35.9317765 152.844259,36.3272282 C152.844259,36.8544719 152.910248,37.3817156 153.041971,37.974885 C153.10796,38.5021267 153.239672,39.0293826 153.371528,39.5566641 C153.569249,40.0839058 153.701064,40.6111618 153.898765,41.1384045 C154.030498,41.4679672 154.228291,41.7974902 154.360136,42.0610988 L139.20155,36.1953943 C136.631167,35.4704196 134.126733,34.8113726 131.55635,34.2182012 C130.172318,33.8886782 128.788286,33.5591308 127.404234,33.2295935 C123.449809,32.4387167 119.429528,31.8455708 115.409196,31.4501334 C115.277494,31.4501334 115.211484,31.3841344 115.07967,31.3841344 C111.125235,30.988697 107.236758,30.7909773 103.282353,30.7909773 C100.382434,30.7909773 97.4825154,30.9226806 94.648523,31.1205013 C90.6282031,31.3842364 86.6078771,31.9113903 82.5875848,32.5704374 C81.598974,32.7021539 80.6103652,32.8999991 79.6217534,33.0977198 C77.57865,33.4931317 75.601461,33.9544978 73.6901599,34.4158506 C72.7015512,34.6795857 71.7129404,34.9431065 70.7243306,35.2067162 C69.7357524,35.6021525 68.8130611,36.0635206 67.8903371,36.458958 C67.1653666,36.788482 66.440399,37.1180173 65.7154274,37.4475668 C65.583716,37.5135658 65.4516964,37.5135658 65.3859014,37.5792834 C64.7268187,37.9088064 64.1336534,38.172415 63.5405177,38.5019757 C63.342795,38.5679748 63.210959,38.6336801 63.0791558,38.6996964 C62.3541862,39.0292215 61.6292187,39.4246589 61.0360504,39.7541941 C60.5746894,39.9519138 60.113359,40.2155479 59.7179166,40.4132799 C59.5201928,40.5449832 59.2565525,40.6770027 59.1247493,40.7428039 C58.531585,41.0723279 57.9384187,41.4018499 57.4111699,41.7314127 C56.8180036,42.0609356 56.2907548,42.3904597 55.8293938,42.7199837 C55.3680655,43.0495454 54.9067056,43.313154 54.511259,43.642677 C54.4452294,43.7086761 54.3795475,43.7086761 54.3135363,43.7743946 C53.9180938,44.0381287 53.4567634,44.3675507 53.0613209,44.6971125 C53.0613209,44.6971125 52.9953015,44.7631013 52.9296084,44.828827 C52.6000824,45.0925621 52.2705237,45.3560718 51.9409986,45.6196804 C51.8092882,45.6856794 51.6772666,45.8173991 51.5455551,45.8834144 C51.2160291,46.1471516 50.886503,46.4765858 50.5569759,46.7402189 C50.4909565,46.8719345 50.3592552,46.9379386 50.2932439,47.003955 C49.8978004,47.3993934 49.5023559,47.7289164 49.1069124,48.1243681 C49.0408929,48.1243681 49.0408929,48.1903671 48.9752009,48.2560714 C48.5797574,48.5856076 48.1843149,48.9810471 47.7888714,49.3764977 C47.722852,49.4424968 47.722852,49.5082 47.6571589,49.5082 C47.3276328,49.8377251 46.9981068,50.1672858 46.6685491,50.5626977 C46.5368396,50.6944133 46.339023,50.8264348 46.2072198,50.9581361 C45.8776937,51.3535878 45.4822492,51.7490262 45.0868067,52.1444778 C45.0207873,52.2761822 44.8890849,52.3421975 44.8230737,52.4740008 C44.2958238,53.0012823 43.8344629,53.528525 43.307215,54.05578 C43.2411956,54.121779 43.1755046,54.1874802 43.1094943,54.2534997 C42.0549671,55.3739117 40.934552,56.4943248 39.748251,57.4829264 C38.5619215,58.537422 37.3097011,59.5260308 36.0574542,60.3828149 C34.7393173,61.3055368 33.4870999,62.0963932 32.1030466,62.8872802 C30.7849098,63.6122294 29.4008575,64.2713223 27.9509184,64.8644977 C26.5668641,65.4576528 25.116926,65.984921 23.6669838,66.4462411 C20.8988782,67.0393962 18.0648838,68.1598195 15.6263349,68.3575412 C15.099087,68.3575412 14.5059208,68.4892639 13.9786719,68.5552528 C13.3855087,68.6869653 12.8582599,68.818994 12.3310121,68.9507167 C11.8037633,69.148418 11.2764848,69.34615 10.749235,69.5438615 C10.2219862,69.7415833 9.69473836,70.0052225 9.16748953,70.2688515 C8.70612857,70.5983674 8.17888178,70.8620066 7.71751879,71.1915326 C7.25618639,71.5210587 6.79482543,71.916492 6.39938091,72.3119457 C5.93805157,72.6415023 5.47669061,73.1028429 5.08124609,73.498266 C4.68580156,73.9596474 4.29035908,74.3550807 3.96083261,74.8164008 C3.63130645,75.3436486 3.23586223,75.8050198 2.97222222,76.3322778 C2.64269616,76.7936388 2.31317021,77.3208764 2.04953019,77.8481038 C1.78579766,78.4412996 1.52228258,78.9685372 1.32455991,79.5617127 C1.12683826,80.0889605 0.929116507,80.6821156 0.731394754,81.275291 C0.59968408,81.8025286 0.467662432,82.3297866 0.401868902,82.8570141 C0.401868902,82.9231049 0.335860679,82.988747 0.335860679,83.054746 C0.204148985,83.6479419 0.204148985,84.4388391 0.13813811,84.8342928 C0.0721298869,85.2956231 0.00642835378,85.6910462 0.00642835378,86.1524174 C0.00642835378,86.4161484 0.00642835378,86.7455521 0.0724365769,87.0091811 C0.1384448,87.4705522 0.204146129,87.8659855 0.336169001,88.2614596 C0.467879675,88.6568419 0.599901527,89.0522956 0.797499461,89.4477494 C0.797499461,89.5137382 0.797499461,89.5137382 0.797499461,89.5137382 C0.995221112,89.9092123 1.25886103,90.3046354 1.52246984,90.7000789 C1.78620226,91.0955224 2.04974865,91.4909659 2.37927471,91.8864196 C2.70880066,92.2159457 3.10424519,92.6113586 3.49968818,92.9409051 C3.89513261,93.3363486 4.29057734,93.6658746 4.75190668,93.9954007 C6.33368172,95.3794631 6.72912523,95.8408241 8.77223471,96.8953095 C9.10175771,97.0930415 9.43131742,97.224856 9.82676092,97.4225777 C9.89278037,97.4225777 9.95847241,97.4885666 10.0244817,97.4885666 C10.0244817,97.6202689 10.0244817,97.6862985 10.0905011,97.8181334 C10.1565103,98.3453914 10.2882218,98.8726188 10.4200272,99.399887 C10.5517376,99.9930523 10.7495848,100.520321 10.9473066,100.981651 C11.1450283,101.377105 11.2768326,101.772528 11.4745554,102.167992 C11.5405647,102.299714 11.6062679,102.431723 11.6722772,102.497518 C11.9360092,103.024755 12.199525,103.486147 12.4631336,103.947457 C12.7926913,104.408797 13.1222163,104.870138 13.4517413,105.331519 C13.7812694,105.726942 14.1767139,106.188293 14.5721564,106.583726 C14.967601,106.97918 15.3630455,107.308716 15.8244075,107.704129 C15.8244075,107.704129 15.8904269,107.77022 15.9561169,107.77022 C16.3515625,108.099777 16.7470039,108.429313 17.1424495,108.692901 C17.6037798,109.022448 18.0651408,109.286056 18.5923876,109.549706 C19.0537495,109.813437 19.5809984,110.076953 20.1082462,110.274685 C20.5036907,110.472407 20.96502,110.604232 21.426383,110.736036 C21.4924025,110.802127 21.5580935,110.802127 21.6901161,110.867769 C21.9538481,110.93386 22.2832487,110.999461 22.5468889,111.06547 C22.3491682,114.624431 22.2831559,117.985671 22.810623,119.172022 C23.4037576,120.490146 26.3036675,116.469834 29.2035794,111.856368 C28.8081369,116.403937 28.5444957,121.742353 29.2035794,123.324158 C29.928548,124.971788 33.8829555,119.831063 37.3101131,114.163081 C84.0380298,103.354404 126.679795,135.648722 131.161437,181.256224 C130.304643,174.138281 121.539039,170.183887 117.518748,171.172506 C115.54152,176.049592 112.180281,182.310729 106.775938,186.199237 C107.237278,181.849379 107.039648,177.367737 106.116875,173.017868 C104.666905,179.081305 101.832904,184.749318 97.9443863,189.626404 C91.6832413,190.087734 85.422081,187.056011 82.1267276,182.508472 C81.8629946,182.310729 81.7972006,181.915296 81.5994788,181.651677 C81.401755,181.190286 81.2040363,180.728986 81.07223,180.267615 C80.8745093,179.806284 80.742705,179.344924 80.6767875,178.883593 C80.6107681,178.422222 80.6107681,177.960881 80.6107681,177.433644 C80.6107681,177.104087 80.6107681,176.774571 80.6107681,176.445055 C80.6767875,175.983664 80.8084898,175.522323 80.9402951,175.060973 C81.0720056,174.599642 81.2040261,174.138281 81.4016561,173.676931 C81.6653891,173.21561 81.8629865,172.754249 82.1925441,172.292919 C83.3129572,169.129351 83.3129572,166.559009 81.2698528,165.043162 C80.8744083,164.779431 80.4789648,164.581791 80.0176038,164.384069 C79.7538687,164.318081 79.4244365,164.186348 79.16083,164.120349 C78.9631072,164.05436 78.8313039,163.988616 78.6335811,163.922617 C78.1722192,163.790904 77.7108572,163.658875 77.2495268,163.593091 C76.7881659,163.461388 76.3268355,163.395369 75.8654745,163.395369 C75.4041432,163.329278 74.8768627,163.263656 74.4155334,163.263656 C74.0860084,163.263656 73.7564507,163.329645 73.4269236,163.329645 C72.8996768,163.329645 72.4383159,163.395736 71.9769835,163.527367 C71.5156225,163.593458 71.0542932,163.659069 70.5929322,163.791077 C70.1315998,163.9228 69.6702378,164.054819 69.2088769,164.252469 C68.7475475,164.450181 68.352102,164.647902 67.8907431,164.845624 C67.4953302,165.043356 67.0998846,165.306954 66.6385247,165.504676 C51.282226,175.522507 60.443289,198.985335 70.9224593,205.773741 C66.9680497,206.498711 62.9477564,207.355536 61.8273413,208.212289 C61.7613218,208.278278 61.6956308,208.344012 61.6956308,208.344012 C64.5296242,210.05757 67.495424,211.507529 70.593024,212.759747 C74.8110728,214.143799 79.2927261,215.396027 81.2699446,215.923295 C81.2699446,215.923295 81.2699446,215.989284 81.2699446,215.989284 C86.7402097,217.109707 92.2763943,217.50515 97.8784688,217.175624 C127.075208,215.13251 150.999387,192.921889 155.349245,163.659273 C155.480957,164.252449 155.612976,164.779676 155.744688,165.372862 C155.94242,166.559151 156.206019,167.811389 156.337823,169.063617 C156.337823,169.063617 156.337823,169.063617 156.337823,169.129708 C156.469536,169.722873 156.535545,170.316028 156.601554,170.843276 C156.601554,170.974988 156.601554,171.040997 156.601554,171.107017 C156.667645,171.700172 156.733277,172.293347 156.733277,172.820585 C156.799266,173.545565 156.864989,174.270524 156.864989,174.995535 C156.864989,175.325061 156.864989,175.654597 156.864989,176.05003 C156.864989,176.379587 156.930978,176.77499 156.930978,177.104546 C156.930978,177.5 156.864989,177.895413 156.864989,178.290856 C156.864989,178.620423 156.864989,178.949939 156.864989,179.213548 C156.864989,179.674919 156.798898,180.070342 156.798898,180.531693 C156.798898,180.795403 156.798898,181.058951 156.73291,181.388487 C156.73291,181.849858 156.666921,182.311168 156.666921,182.838426 C156.60083,183.036148 156.60083,183.23387 156.60083,183.431601 C156.534841,183.958859 156.469117,184.42021 156.403098,184.947468 C156.403098,185.1452 156.403098,185.342902 156.337109,185.540644 C156.271018,186.199686 156.139398,186.792871 156.073409,187.451913 C156.073409,187.451913 156.073409,187.518004 156.073409,187.518004 L156.073409,187.583993 C155.941696,188.177148 155.809657,188.83621 155.677935,189.429365 C155.677935,189.495354 155.677935,189.561078 155.677935,189.627097 C155.546243,190.220242 155.414204,190.813428 155.282512,191.406562 C155.282512,191.472653 155.216523,191.604294 155.216523,191.670273 C155.08479,192.263459 154.952771,192.856614 154.755192,193.44981 C154.755192,193.515798 154.755192,193.581502 154.755192,193.647511 C154.557471,194.306553 154.359739,194.899728 154.227914,195.492894 C154.161925,195.558882 154.161925,195.624606 154.161925,195.624606 C153.964193,196.283689 153.766492,196.942741 153.56879,197.601803 C153.305059,198.260886 153.10744,198.854041 152.843821,199.513113 C152.5801,200.172186 152.38245,200.831259 152.118831,201.424403 C151.85509,202.083496 151.591563,202.676662 151.327954,203.335703 C151.327954,203.335703 151.261863,203.335703 151.261863,203.335703 C150.998112,203.928859 150.734575,204.587951 150.405028,205.181127 C150.405028,205.181127 150.405028,205.181127 150.405028,205.181127 C150.405028,205.181127 150.405028,205.181127 150.405028,205.181127 C150.339039,205.378818 150.273336,205.510653 150.207327,205.642437 C150.141338,205.708528 150.141338,205.774149 150.075614,205.840179 C145.791684,214.473947 139.464598,222.05323 131.555809,227.984862 C131.028562,228.314388 130.501293,228.709842 129.974056,229.105265 C129.974056,229.105265 129.974056,229.105265 129.974056,229.105265 C129.842333,229.236988 129.644499,229.303007 129.512695,229.434791 C129.051334,229.764328 128.589993,230.093843 128.062766,230.42341 L128.260477,230.818854 L128.326466,230.818854 C129.249147,230.687151 130.171849,230.555123 131.09455,230.42341 L131.160539,230.42341 C132.874128,230.159679 134.587706,229.830245 136.301295,229.500719 C136.762615,229.434628 137.289903,229.303007 137.751224,229.171162 C138.08075,229.105071 138.344389,229.03946 138.673915,228.973441 C139.135276,228.90735 139.596616,228.775719 140.057988,228.70972 C140.453411,228.578007 140.848864,228.511978 141.244298,228.380183 C147.834972,226.798399 154.227955,224.62346 160.357247,222.053118 C149.878097,236.354879 135.839924,247.888587 119.42913,255.46787 C127.008433,254.940612 134.587706,253.688394 141.90336,251.579383 C168.463819,243.73643 190.806214,225.875708 204.185294,201.819714 C201.483117,217.044208 195.419691,231.543701 186.456376,244.197822 C192.849328,239.979747 198.715033,235.102652 204.05349,229.566483 C218.816612,214.144299 228.504937,194.569998 231.800249,173.545677 C234.041095,183.958961 234.700168,194.701813 233.711559,205.312788 C281.296288,138.944615 237.665963,70.1378937 219.409787,52.0135211 C219.343697,51.8818157 219.278075,51.8158014 219.278075,51.683996 C219.211984,51.7499849 219.211984,51.7499849 219.211984,51.8157126 C219.211984,51.7497136 219.211984,51.7497136 219.145995,51.683996 C219.145995,52.4748851 219.080006,53.2657374 219.014283,54.0566275 C218.816551,55.5724841 218.618849,57.0224324 218.3552,58.4724021 C218.025684,59.9223412 217.63023,61.37226 217.234777,62.8222399 C216.773446,64.2062615 216.246219,65.6562109 215.653033,67.0402733 C215.059868,68.3583878 214.400796,69.74244 213.675826,71.0605953 C212.950846,72.312833 212.159969,73.6309576 211.303196,74.8172678 C210.446401,76.0695259 209.5237,77.2558258 208.600988,78.3762185 C207.612369,79.5625694 206.557894,80.6170855 205.503368,81.6715913 C204.844316,82.2647565 204.25116,82.7920043 203.592057,83.3192317 C203.06482,83.7806029 202.603479,84.1760566 202.076201,84.6373666 C200.889891,85.5600681 199.70357,86.4168623 198.385446,87.2077596 C197.133208,87.9986262 195.815104,88.7895132 194.496959,89.4485959 C193.112906,90.1076582 191.728854,90.7008133 190.344822,91.2939887 C188.96077,91.8212161 187.510831,92.2825771 186.060841,92.6780308 C184.610912,93.0734539 183.095065,93.4030004 181.645106,93.6666192 C180.12927,93.9303502 178.613403,94.0620525 177.163454,94.1938874 C176.108938,94.2598762 175.054442,94.3256101 173.999916,94.3256101 C172.484049,94.3256101 170.968223,94.1938874 169.518264,94.0618791 C168.002417,93.9301666 166.48654,93.732302 165.036601,93.402776 C163.520745,93.139045 162.070775,92.7436933 160.620825,92.2823833 L160.554837,92.2823833 C162.004786,92.1506708 163.454745,92.0186319 164.904715,91.7551151 C166.420541,91.4913841 167.870491,91.1619702 169.32046,90.7664961 C170.770399,90.3710628 172.220349,89.9097019 173.604391,89.3824643 C175.05433,88.8552062 176.438392,88.1961643 177.756537,87.5370612 C179.140569,86.8779785 180.392807,86.1530294 181.710932,85.3621423 C182.963149,84.5053583 184.215387,83.6485844 185.401707,82.7258625 C186.588038,81.8031814 187.70843,80.814593 188.762977,79.760077 C189.88339,78.7714478 190.871978,77.651045 191.860587,76.5306217 C192.849165,75.344332 193.771877,74.1580015 194.628671,72.9716709 C194.760394,72.773939 194.892412,72.5103406 195.024135,72.3126086 C195.683177,71.2580926 196.342229,70.2035868 196.935384,69.1490606 C197.660374,67.8309258 198.319457,66.5127807 198.912602,65.1287693 C199.505777,63.744717 200.033035,62.3606545 200.494386,60.9107256 C200.955716,59.5266631 201.285253,58.0767342 201.614799,56.6267971 C201.87854,55.1109324 202.142037,53.6609606 202.273861,52.2110236 C202.405574,50.6951731 202.537582,49.1793073 202.537582,47.7293723 C202.537582,46.6748481 202.471491,45.6203505 202.40589,44.5658518 C202.274167,43.0499993 202.076344,41.6000255 201.878632,40.1500874 C201.614891,38.6342237 201.285477,37.1842886 200.890013,35.7343128 C200.428693,34.3502901 199.967322,32.9003275 199.440084,31.5163069 C198.912796,30.1322464 198.253764,28.7482003 197.594661,27.4300542 C196.869691,26.1119215 196.144732,24.7937887 195.353855,23.5415713 C194.497071,22.2893539 193.640256,21.1030265 192.717565,19.9166858 C191.728987,18.7962717 190.740378,17.6758596 189.685842,16.5554466 C189.158604,16.0282018 188.565429,15.4350315 187.972273,14.9077898 C185.006478,12.601036 181.908847,10.4260977 178.811247,8.44890773 C178.349907,8.18518285 177.954463,7.98755493 177.493102,7.78982298 C175.318163,6.40579927 173.275058,5.68080013 171.231964,5.0217521 L171.231852,5.02138594 Z"/>
</svg>
