<svg xmlns="http://www.w3.org/2000/svg" xmlns:xlink="http://www.w3.org/1999/xlink" width="256" height="256" viewBox="0 0 256 256">
  <defs>
    <linearGradient id="nodejs-a" x1="68.188%" x2="27.823%" y1="17.487%" y2="89.755%">
      <stop offset="0%" stop-color="#41873F"/>
      <stop offset="32.88%" stop-color="#418B3D"/>
      <stop offset="63.52%" stop-color="#419637"/>
      <stop offset="93.19%" stop-color="#3FA92D"/>
      <stop offset="100%" stop-color="#3FAE2A"/>
    </linearGradient>
    <path id="nodejs-b" d="M28.9515,0.425 C28.0379873,-0.095018608 26.9180127,-0.095018608 26.0045,0.425 L1.676,14.4665 C0.751,14.9865 0.231,15.969 0.231,17.009 L0.231,45.152 C0.231,46.192 0.809,47.1745 1.676,47.6945 L26.0045,61.737 C26.9180127,62.2570186 28.0379873,62.2570186 28.9515,61.737 L53.2805,47.6945 C54.205,47.1745 54.7255,46.192 54.7255,45.152 L54.7255,17.0095 C54.7255,15.9695 54.147,14.987 53.2805,14.467 L28.9515,0.425 Z"/>
    <linearGradient id="nodejs-d" x1="43.277%" x2="159.245%" y1="55.169%" y2="-18.306%">
      <stop offset="13.76%" stop-color="#41873F"/>
      <stop offset="40.32%" stop-color="#54A044"/>
      <stop offset="71.36%" stop-color="#66B848"/>
      <stop offset="90.81%" stop-color="#6CC04A"/>
    </linearGradient>
    <path id="nodejs-e" d="M28.9515,0.425 C28.0379873,-0.095018608 26.9180127,-0.095018608 26.0045,0.425 L1.676,14.4665 C0.751,14.9865 0.231,15.969 0.231,17.009 L0.231,45.152 C0.231,46.192 0.809,47.1745 1.676,47.6945 L26.0045,61.737 C26.9180127,62.2570186 28.0379873,62.2570186 28.9515,61.737 L53.2805,47.6945 C54.205,47.1745 54.7255,46.192 54.7255,45.152 L54.7255,17.0095 C54.7255,15.9695 54.147,14.987 53.2805,14.467 L28.9515,0.425 Z"/>
    <linearGradient id="nodejs-g" x1="-4413.77%" x2="5327.93%" y1="13.43%" y2="13.43%">
      <stop offset="9.192%" stop-color="#6CC04A"/>
      <stop offset="28.64%" stop-color="#66B848"/>
      <stop offset="59.68%" stop-color="#54A044"/>
      <stop offset="86.24%" stop-color="#41873F"/>
    </linearGradient>
    <linearGradient id="nodejs-h" x1="-4.389%" x2="101.499%" y1="49.997%" y2="49.997%">
      <stop offset="9.192%" stop-color="#6CC04A"/>
      <stop offset="28.64%" stop-color="#66B848"/>
      <stop offset="59.68%" stop-color="#54A044"/>
      <stop offset="86.24%" stop-color="#41873F"/>
    </linearGradient>
    <linearGradient id="nodejs-i" x1="-9713.77%" x2="27.93%" y1="36.21%" y2="36.21%">
      <stop offset="9.192%" stop-color="#6CC04A"/>
      <stop offset="28.64%" stop-color="#66B848"/>
      <stop offset="59.68%" stop-color="#54A044"/>
      <stop offset="86.24%" stop-color="#41873F"/>
    </linearGradient>
    <linearGradient id="nodejs-j" x1="-103.861%" x2="100.797%" y1="50.275%" y2="50.275%">
      <stop offset="9.192%" stop-color="#6CC04A"/>
      <stop offset="28.64%" stop-color="#66B848"/>
      <stop offset="59.68%" stop-color="#54A044"/>
      <stop offset="86.24%" stop-color="#41873F"/>
    </linearGradient>
    <linearGradient id="nodejs-k" x1="130.613%" x2="4.393%" y1="-211.069%" y2="201.605%">
      <stop offset="0%" stop-color="#41873F"/>
      <stop offset="32.88%" stop-color="#418B3D"/>
      <stop offset="63.52%" stop-color="#419637"/>
      <stop offset="93.19%" stop-color="#3FA92D"/>
      <stop offset="100%" stop-color="#3FAE2A"/>
    </linearGradient>
  </defs>
  <g fill="none" fill-rule="evenodd">
    <path fill="#539E43" fill-rule="nonzero" d="M126.555,206.547 C125.6885,206.547 124.8795,206.316 124.128,205.9115 L116.4425,201.3465 C115.2865,200.7105 115.8645,200.4795 116.2115,200.364 C117.7715,199.844 118.0605,199.728 119.6785,198.804 C119.852,198.688 120.0835,198.746 120.2565,198.8615 L126.151,202.3865 C126.382,202.502 126.671,202.502 126.844,202.3865 L149.9015,189.0375 C150.1325,188.922 150.2485,188.6905 150.2485,188.402 L150.2485,161.762 C150.2485,161.4725 150.1325,161.242 149.9015,161.126 L126.844,147.835 C126.613,147.719 126.324,147.719 126.151,147.835 L103.0935,161.126 C102.8625,161.2415 102.7465,161.5305 102.7465,161.7615 L102.7465,188.4015 C102.7465,188.633 102.8625,188.9215 103.0935,189.0375 L109.3925,192.678 C112.802,194.4115 114.94,192.389 114.94,190.3665 L114.94,164.073 C114.94,163.7265 115.229,163.3795 115.6335,163.3795 L118.5805,163.3795 C118.9275,163.3795 119.274,163.6685 119.274,164.073 L119.274,190.3665 C119.274,194.9315 116.789,197.59 112.455,197.59 C111.126,197.59 110.086,197.59 107.1385,196.145 L101.071,192.678 C99.5685,191.8115 98.644,190.193 98.644,188.4595 L98.644,161.8195 C98.644,160.086 99.5685,158.4675 101.071,157.601 L124.128,144.252 C125.573,143.443 127.538,143.443 128.9825,144.252 L152.0395,157.601 C153.542,158.4675 154.467,160.086 154.467,161.8195 L154.467,188.4595 C154.467,190.193 153.542,191.8115 152.0395,192.678 L128.9825,206.027 C128.231,206.374 127.3645,206.547 126.5555,206.547 L126.555,206.547 Z M133.663,188.2285 C123.5505,188.2285 121.47,183.6055 121.47,179.676 C121.47,179.329 121.759,178.9825 122.1635,178.9825 L125.1685,178.9825 C125.515,178.9825 125.804,179.2135 125.804,179.5605 C126.2665,182.623 127.5955,184.1255 133.721,184.1255 C138.575,184.1255 140.656,183.0275 140.656,180.427 C140.656,178.9245 140.0775,177.827 132.5075,177.0755 C126.2085,176.4395 122.279,175.053 122.279,170.0255 C122.279,165.3445 126.209,162.5705 132.7965,162.5705 C140.193,162.5705 143.834,165.1135 144.2965,170.6605 C144.2965,170.8345 144.2385,171.0075 144.123,171.181 C144.007,171.2965 143.834,171.412 143.6605,171.412 L140.6555,171.412 C140.3665,171.412 140.0775,171.181 140.02,170.892 C139.3265,167.714 137.535,166.6735 132.7965,166.6735 C127.48,166.6735 126.844,168.523 126.844,169.9095 C126.844,171.5855 127.5955,172.1055 134.761,173.03 C141.869,173.955 145.221,175.284 145.221,180.2535 C145.163,185.339 141.0025,188.2285 133.663,188.2285 Z"/>
    <path fill="#333" fill-rule="nonzero" d="M55.014,102.356 C55.014,101.316 54.436,100.333 53.5115,99.813 L29.0095,85.713 C28.6045,85.4815 28.1425,85.366 27.6805,85.308 L27.449,85.308 C26.987,85.308 26.5245,85.4815 26.12,85.713 L1.618,99.813 C0.693,100.333 0.1155,101.3155 0.1155,102.356 L0.1735,140.2645 C0.1735,140.7845 0.4625,141.3045 0.9245,141.536 C1.387,141.825 1.9645,141.825 2.3695,141.536 L16.932,133.2145 C17.8565,132.6945 18.4345,131.712 18.4345,130.672 L18.4345,112.931 C18.4345,111.891 19.012,110.9085 19.937,110.3885 L26.12,106.8055 C26.5825,106.5165 27.1025,106.4005 27.6225,106.4005 C28.1425,106.4005 28.6625,106.5165 29.0675,106.8055 L35.2505,110.3885 C36.1755,110.9085 36.753,111.8905 36.753,112.931 L36.753,130.672 C36.753,131.712 37.331,132.6945 38.2555,133.2145 L52.818,141.536 C53.2805,141.825 53.858,141.825 54.3205,141.536 C54.783,141.3045 55.072,140.7845 55.072,140.2645 L55.014,102.356 Z M172.7855,50.1735 C172.3235,49.942 171.7455,49.942 171.3405,50.1735 C170.8785,50.4625 170.5895,50.9245 170.5895,51.4445 L170.5895,89.007 C170.5895,89.3535 170.4165,89.7 170.0695,89.9315 C169.723,90.1045 169.376,90.1045 169.0295,89.9315 L162.904,86.4065 C161.990359,85.8862916 160.870141,85.8862916 159.9565,86.4065 L135.4545,100.5645 C134.53,101.0845 133.952,102.067 133.952,103.107 L133.952,131.365 C133.952,132.405 134.53,133.388 135.4545,133.908 L159.9565,148.066 C160.870141,148.586208 161.990359,148.586208 162.904,148.066 L187.406,133.908 C188.3305,133.388 188.9085,132.4055 188.9085,131.365 L188.9085,60.922 C188.9085,59.824 188.3305,58.842 187.406,58.3215 L172.786,50.1735 L172.7855,50.1735 Z M170.532,122.0615 C170.532,122.3505 170.4165,122.5815 170.185,122.697 L161.806,127.551 C161.568857,127.666688 161.291643,127.666688 161.0545,127.551 L152.6755,122.697 C152.444,122.5815 152.3285,122.2925 152.3285,122.0615 L152.3285,112.353 C152.3285,112.064 152.444,111.833 152.6755,111.7175 L161.0545,106.863 C161.291643,106.747312 161.568857,106.747312 161.806,106.863 L170.185,111.7175 C170.4165,111.8325 170.532,112.122 170.532,112.353 L170.532,122.0615 Z M254.324,112.122 C255.249,111.602 255.769,110.6195 255.769,109.579 L255.769,102.7025 C255.769,101.6625 255.191,100.68 254.324,100.16 L229.9955,86.06 C229.081987,85.5399814 227.962013,85.5399814 227.0485,86.06 L202.5465,100.2175 C201.6215,100.7375 201.044,101.72 201.044,102.7605 L201.044,131.0185 C201.044,132.0585 201.6215,133.041 202.5465,133.561 L226.875,147.43 C227.8,147.95 228.8975,147.95 229.7645,147.43 L244.5,139.225 C244.9625,138.9935 245.2515,138.4735 245.2515,137.9535 C245.2515,137.4335 244.9625,136.9135 244.5,136.682 L219.8825,122.524 C219.4205,122.2355 219.1315,121.773 219.1315,121.253 L219.1315,112.4115 C219.1315,111.8915 219.4205,111.3715 219.8825,111.14 L227.5685,106.748 C228.027658,106.459053 228.611842,106.459053 229.071,106.748 L236.7565,111.14 C237.219,111.429 237.508,111.891 237.508,112.4115 L237.508,119.346 C237.508,119.866 237.797,120.386 238.259,120.617 C238.7215,120.906 239.299,120.906 239.7615,120.617 L254.324,112.122 Z"/>
    <path fill="#539E43" d="M228.1465,110.793 C228.32171,110.677615 228.54879,110.677615 228.724,110.793 L233.405,113.509 C233.5785,113.624 233.694,113.7975 233.694,114.029 L233.694,119.461 C233.694,119.692 233.5785,119.8655 233.405,119.981 L228.724,122.697 C228.54879,122.812385 228.32171,122.812385 228.1465,122.697 L223.4655,119.981 C223.292,119.8655 223.1765,119.692 223.1765,119.461 L223.1765,114.029 C223.1765,113.7975 223.292,113.624 223.4655,113.509 L228.1465,110.793 Z"/>
    <g transform="translate(67.034 85.75)">
      <path fill="url(#nodejs-a)" d="M28.9515,0.425 C28.0379873,-0.095018608 26.9180127,-0.095018608 26.0045,0.425 L1.676,14.4665 C0.751,14.9865 0.231,15.969 0.231,17.009 L0.231,45.152 C0.231,46.192 0.809,47.1745 1.676,47.6945 L26.0045,61.737 C26.9180127,62.2570186 28.0379873,62.2570186 28.9515,61.737 L53.2805,47.6945 C54.205,47.1745 54.7255,46.192 54.7255,45.152 L54.7255,17.0095 C54.7255,15.9695 54.147,14.987 53.2805,14.467 L28.9515,0.425 Z"/>
      <mask id="nodejs-c" fill="#fff">
        <use xlink:href="#nodejs-b"/>
      </mask>
      <g mask="url(#nodejs-c)">
        <path d="M25.9465,0.425 L1.5605,14.4665 C0.635,14.987 0,15.97 0,17.01 L0,45.153 C0,45.8465 0.289,46.482 0.751,47.002 L28.1425,0.078 C27.449,-0.0375 26.64,0.02 25.9465,0.4245 L25.9465,0.425 Z M28.316,62.0265 C28.547,61.9685 28.7785,61.853 29.0095,61.7375 L53.396,47.695 C54.321,47.175 54.8985,46.1925 54.8985,45.1525 L54.8985,17.0095 C54.8985,16.2585 54.5515,15.507 54.0315,14.987 L28.3165,62.0265 L28.316,62.0265 Z"/>
        <path fill="url(#nodejs-d)" d="M53.338,14.467 L28.894,0.425 C28.6538232,0.303713905 28.402056,0.206893258 28.1425,0.136 L0.751,47.06 C0.977898119,47.337024 1.25194054,47.5717966 1.5605,47.7535 L26.0045,61.796 C26.698,62.2005 27.507,62.316 28.258,62.0845 L53.974,15.0455 C53.8005,14.8145 53.569,14.6405 53.338,14.4675 L53.338,14.467 Z"/>
      </g>
      <mask id="nodejs-f" fill="#fff">
        <use xlink:href="#nodejs-e"/>
      </mask>
      <g mask="url(#nodejs-f)">
        <g transform="translate(0 -5)">
          <path d="M54.8985,50.1525 L54.8985,22.0095 C54.8985,20.9695 54.263,19.987 53.3385,19.467 L28.893,5.425 C28.6104662,5.25050578 28.2966038,5.13280739 27.969,5.0785 L54.7245,50.7885 C54.84,50.615 54.898,50.384 54.898,50.153 L54.8985,50.1525 Z M1.56,19.467 C0.636,19.987 0,20.97 0,22.01 L0,50.153 C0,51.193 0.6935,52.1755 1.56,52.6955 L26.0045,66.738 C26.5825,67.0845 27.218,67.2005 27.9115,67.0845 L1.7335,19.409 L1.5605,19.467 L1.56,19.467 Z"/>
          <polygon fill="url(#nodejs-g)" points="25.195 .281 24.849 .455 25.311 .455"/>
          <path fill="url(#nodejs-h)" d="M53.396,52.695 C54.0895,52.2905 54.6095,51.597 54.841,50.846 L28.0265,5.078 C27.333,4.9625 26.5815,5.02 25.9465,5.4245 L1.6755,19.4095 L27.853,67.142 C28.2337026,67.0796683 28.6034784,66.9629768 28.951,66.7955 L53.3955,52.6955 L53.396,52.695 Z"/>
          <polygon fill="url(#nodejs-i)" points="55.65 52.233 55.477 51.944 55.477 52.349 55.65 52.233"/>
          <path fill="url(#nodejs-j)" d="M53.396,52.695 L29.0095,66.7375 C28.6652323,66.9130531 28.2941738,67.0301494 27.9115,67.084 L28.374,67.951 L55.4185,52.291 L55.4185,51.944 L54.725,50.788 C54.6095,51.597 54.0895,52.2905 53.396,52.695 Z"/>
          <path fill="url(#nodejs-k)" d="M53.396,52.695 L29.0095,66.7375 C28.6652323,66.9130531 28.2941738,67.0301494 27.9115,67.084 L28.374,67.951 L55.4185,52.291 L55.4185,51.944 L54.725,50.788 C54.6095,51.597 54.0895,52.2905 53.396,52.695 Z"/>
        </g>
      </g>
    </g>
  </g>
</svg>
