<svg xmlns="http://www.w3.org/2000/svg" width="256" height="256" viewBox="0 0 256 256">
  <g fill="none" fill-rule="evenodd">
    <path fill="#61DAFB" fill-rule="nonzero" d="M255.271545,127.691057 C255.271545,110.780488 234.094309,94.7544715 201.626016,84.8162602 C209.118699,51.7235772 205.788618,25.395122 191.115447,16.9658537 C187.733333,14.9886179 183.778862,14.0520325 179.460163,14.0520325 L179.460163,25.6552846 C181.853659,25.6552846 183.778862,26.1235772 185.39187,27.0081301 C192.468293,31.0666667 195.538211,46.5203252 193.144715,66.396748 C192.572358,71.2878049 191.635772,76.4390244 190.491057,81.6943089 C180.292683,79.196748 169.157724,77.2715447 157.450407,76.0227642 C150.426016,66.396748 143.141463,57.6552846 135.804878,50.0065041 C152.76748,34.2406504 168.689431,25.603252 179.512195,25.603252 L179.512195,14 C179.512195,14 179.512195,14 179.512195,14 C165.203252,14 146.471545,24.198374 127.531707,41.8894309 C108.59187,24.302439 89.8601626,14.2081301 75.5512195,14.2081301 L75.5512195,25.8113821 C86.3219512,25.8113821 102.295935,34.396748 119.258537,50.0585366 C111.973984,57.7073171 104.689431,66.396748 97.7691057,76.0227642 C86.0097561,77.2715447 74.8747967,79.196748 64.6764228,81.7463415 C63.4796748,76.5430894 62.595122,71.495935 61.9707317,66.6569106 C59.5252033,46.7804878 62.5430894,31.3268293 69.5674797,27.2162602 C71.1284553,26.2796748 73.1577236,25.8634146 75.5512195,25.8634146 L75.5512195,14.2601626 C75.5512195,14.2601626 75.5512195,14.2601626 75.5512195,14.2601626 C71.1804878,14.2601626 67.2260163,15.196748 63.7918699,17.1739837 C49.1707317,25.603252 45.8926829,51.8796748 53.4373984,84.8682927 C21.0731707,94.8585366 0,110.83252 0,127.691057 C0,144.601626 21.1772358,160.627642 53.6455285,170.565854 C46.1528455,203.658537 49.4829268,229.986992 64.1560976,238.41626 C67.5382114,240.393496 71.4926829,241.330081 75.8634146,241.330081 C90.1723577,241.330081 108.904065,231.131707 127.843902,213.44065 C146.78374,231.027642 165.515447,241.121951 179.82439,241.121951 C184.195122,241.121951 188.149593,240.185366 191.58374,238.20813 C206.204878,229.778862 209.482927,203.502439 201.938211,170.513821 C234.198374,160.57561 255.271545,144.549593 255.271545,127.691057 Z M187.525203,92.9853659 C185.6,99.697561 183.206504,106.617886 180.500813,113.538211 C178.36748,109.37561 176.130081,105.213008 173.684553,101.050407 C171.291057,96.8878049 168.741463,92.8292683 166.19187,88.8747967 C173.580488,89.9674797 180.708943,91.3203252 187.525203,92.9853659 Z M163.694309,148.4 C159.635772,155.42439 155.473171,162.084553 151.154472,168.276423 C143.401626,168.952846 135.544715,169.317073 127.635772,169.317073 C119.778862,169.317073 111.921951,168.952846 104.221138,168.328455 C99.902439,162.136585 95.6878049,155.528455 91.6292683,148.556098 C87.6747967,141.739837 84.0845528,134.819512 80.8065041,127.847154 C84.0325203,120.874797 87.6747967,113.902439 91.5772358,107.086179 C95.6357724,100.061789 99.798374,93.401626 104.117073,87.2097561 C111.869919,86.5333333 119.726829,86.1691057 127.635772,86.1691057 C135.492683,86.1691057 143.349593,86.5333333 151.050407,87.1577236 C155.369106,93.3495935 159.58374,99.9577236 163.642276,106.930081 C167.596748,113.746341 171.186992,120.666667 174.465041,127.639024 C171.186992,134.611382 167.596748,141.58374 163.694309,148.4 Z M180.500813,141.635772 C183.310569,148.60813 185.704065,155.580488 187.681301,162.344715 C180.865041,164.009756 173.684553,165.414634 166.243902,166.507317 C168.793496,162.500813 171.343089,158.390244 173.736585,154.17561 C176.130081,150.013008 178.36748,145.798374 180.500813,141.635772 Z M127.739837,197.154472 C122.900813,192.15935 118.061789,186.59187 113.274797,180.504065 C117.957724,180.712195 122.744715,180.868293 127.58374,180.868293 C132.474797,180.868293 137.313821,180.764228 142.04878,180.504065 C137.365854,186.59187 132.526829,192.15935 127.739837,197.154472 Z M89.0276423,166.507317 C81.6390244,165.414634 74.5105691,164.061789 67.6943089,162.396748 C69.6195122,155.684553 72.0130081,148.764228 74.7186992,141.843902 C76.8520325,146.006504 79.0894309,150.169106 81.5349593,154.331707 C83.9804878,158.494309 86.4780488,162.552846 89.0276423,166.507317 Z M127.479675,58.2276423 C132.318699,63.2227642 137.157724,68.7902439 141.944715,74.8780488 C137.261789,74.6699187 132.474797,74.5138211 127.635772,74.5138211 C122.744715,74.5138211 117.905691,74.6178862 113.170732,74.8780488 C117.853659,68.7902439 122.692683,63.2227642 127.479675,58.2276423 Z M88.9756098,88.8747967 C86.4260163,92.8813008 83.8764228,96.9918699 81.4829268,101.206504 C79.0894309,105.369106 76.8520325,109.531707 74.7186992,113.694309 C71.9089431,106.721951 69.5154472,99.7495935 67.5382114,92.9853659 C74.3544715,91.3723577 81.5349593,89.9674797 88.9756098,88.8747967 Z M41.8861789,154.019512 C23.4666667,146.162602 11.5512195,135.860163 11.5512195,127.691057 C11.5512195,119.521951 23.4666667,109.16748 41.8861789,101.362602 C46.3609756,99.4373984 51.2520325,97.7203252 56.299187,96.1073171 C59.2650407,106.305691 63.1674797,116.920325 68.0065041,127.795122 C63.2195122,138.617886 59.3691057,149.180488 56.4552846,159.326829 C51.304065,157.713821 46.4130081,155.944715 41.8861789,154.019512 Z M69.8796748,228.373984 C62.803252,224.315447 59.7333333,208.861789 62.1268293,188.985366 C62.699187,184.094309 63.6357724,178.943089 64.7804878,173.687805 C74.9788618,176.185366 86.1138211,178.110569 97.8211382,179.35935 C104.845528,188.985366 112.130081,197.726829 119.466667,205.37561 C102.504065,221.141463 86.5821138,229.778862 75.7593496,229.778862 C73.4178862,229.726829 71.4406504,229.258537 69.8796748,228.373984 Z M193.300813,188.725203 C195.746341,208.601626 192.728455,224.055285 185.704065,228.165854 C184.143089,229.102439 182.113821,229.518699 179.720325,229.518699 C168.949593,229.518699 152.97561,220.933333 136.013008,205.271545 C143.297561,197.622764 150.582114,188.933333 157.502439,179.307317 C169.261789,178.058537 180.396748,176.133333 190.595122,173.58374 C191.79187,178.839024 192.728455,183.886179 193.300813,188.725203 Z M213.333333,154.019512 C208.858537,155.944715 203.96748,157.661789 198.920325,159.274797 C195.954472,149.076423 192.052033,138.461789 187.213008,127.586992 C192,116.764228 195.850407,106.201626 198.764228,96.0552846 C203.915447,97.6682927 208.806504,99.4373984 213.385366,101.362602 C231.804878,109.219512 243.720325,119.521951 243.720325,127.691057 C243.668293,135.860163 231.752846,146.214634 213.333333,154.019512 Z"/>
    <circle cx="127.779" cy="127.779" r="23.779" fill="#61DAFB"/>
  </g>
</svg>
