<svg xmlns="http://www.w3.org/2000/svg" width="256" height="256" viewBox="0 0 256 256">
  <g fill="none" fill-rule="evenodd">
    <path fill="#F1618C" d="M176.218179,3.20777962 L174,34.5138889 L187.091077,24.1208333 L198,34.5138889 L198,1.64751969 L205.999725,1.07448907 C213.711951,0.52205237 220.411784,6.32620834 220.96422,14.0384343 C220.988066,14.3713263 221,14.7049645 221,15.0387094 L221,241.296441 C221,249.028428 214.731986,255.296441 207,255.296441 C206.771263,255.296441 206.542561,255.290836 206.314099,255.279629 L59.0684864,248.056958 C51.8736171,247.704036 46.1209041,241.948973 45.7709211,234.75396 L35.6647859,26.9902081 C35.2951973,19.3921397 41.0603668,12.8893082 48.6479775,12.3457978 L176.218179,3.20777962 Z"/>
    <path fill="#FFF" d="M142.52,100.265263 L179.403636,99.3557895 C180.32,63.8863158 161.763636,46.3789474 129.461818,46.3789474 C97.16,46.3789474 79.0618182,64.5684211 79.0618182,91.8526316 C79.0618182,139.372632 140.916364,140.282105 140.916364,166.202105 C140.916364,173.477895 137.48,177.797895 129.92,177.797895 C120.069091,177.797895 116.174545,171.431579 116.632727,153.696842 L77.9163636,153.696842 C74.9381818,197.578947 100.825455,207.583158 130.378182,207.583158 C159.014545,207.583158 181.465455,194.395789 181.465455,165.747368 C181.465455,114.816842 118.694545,116.181053 118.694545,90.9431579 C118.694545,80.7115789 126.025455,79.3473684 130.378182,79.3473684 C134.96,79.3473684 143.207273,81.1663158 142.52,100.265263 Z"/>
  </g>
</svg>
