<svg xmlns="http://www.w3.org/2000/svg" width="256" height="256" viewBox="0 0 256 256">
  <g fill="none" fill-rule="evenodd">
    <polygon fill="#007ACC" points="0 0 256 0 256 256 0 256"/>
    <path fill="#FFF" fill-rule="nonzero" d="M56.128,128.448 L56.128,138.88 L89.408,138.88 L89.408,233.6 L113.024,233.6 L113.024,138.88 L146.304,138.88 L146.304,128.64 C146.304,122.88 146.304,118.208 146.048,118.08 C146.048,117.888 125.76,117.824 101.12,117.824 L56.32,118.016 L56.32,128.512 L56.128,128.448 Z M205.696,117.76 C212.224,119.296 217.216,122.24 221.696,126.912 C224.064,129.472 227.584,133.952 227.84,135.104 C227.84,135.488 216.768,142.976 210.048,147.136 C209.792,147.328 208.768,146.24 207.744,144.576 C204.416,139.84 201.024,137.792 195.712,137.408 C188.032,136.896 182.912,140.928 182.912,147.648 C182.912,149.696 183.296,150.848 184.064,152.512 C185.792,156.032 188.992,158.144 198.912,162.496 C217.216,170.368 225.152,175.552 229.952,182.976 C235.392,191.296 236.608,204.352 232.96,214.144 C228.864,224.832 218.88,232.064 204.608,234.432 C200.128,235.2 189.888,235.072 185.088,234.24 C174.848,232.32 165.056,227.2 159.04,220.608 C156.672,218.048 152.128,211.2 152.384,210.752 L154.816,209.216 L164.416,203.648 L171.648,199.424 L173.312,201.664 C175.424,204.992 180.16,209.472 182.912,211.008 C191.232,215.296 202.368,214.72 207.872,209.728 C210.24,207.552 211.264,205.248 211.264,202.048 C211.264,199.104 210.816,197.76 209.344,195.52 C207.296,192.704 203.2,190.4 191.68,185.28 C178.432,179.648 172.8,176.064 167.552,170.56 C164.544,167.232 161.792,162.048 160.512,157.76 C159.552,154.048 159.232,144.96 160.128,141.312 C162.88,128.512 172.544,119.552 186.368,116.992 C190.848,116.096 201.408,116.48 205.824,117.632 L205.696,117.76 Z"/>
  </g>
</svg>
