<svg xmlns="http://www.w3.org/2000/svg" width="256" height="256" viewBox="0 0 256 256">
  <defs>
    <radialGradient id="black-hole-a" cx="50%" cy="50%" r="50.665%" fx="50%" fy="50%" gradientTransform="matrix(.66835 -.73482 .74384 .66025 -.206 .537)">
      <stop offset="0%"/>
      <stop offset="25.946%" stop-color="#9614D0"/>
      <stop offset="28.92%" stop-color="#8512CA"/>
      <stop offset="48.559%" stop-color="#0A00A2"/>
      <stop offset="58.661%" stop-color="#0D1650"/>
      <stop offset="100%" stop-color="#0D1650" stop-opacity="0"/>
    </radialGradient>
  </defs>
  <path fill="url(#black-hole-a)" fill-rule="evenodd" d="M128,221.267244 C145.2805,242 140.584477,216.456519 145.2805,219.662482 C178,242 162,234 168.392467,212.047935 C174.784933,190.09587 181,227 186.682134,200.389595 C188.894211,190.030058 177.718529,180.780146 207.859264,175.890073 C238,171 226,185 218.281908,150.576589 C216.662663,143.354609 200,150.576589 221,128.133622 C248.105299,99.1658453 210.394409,100.909872 211.548285,87.1776763 C214,58 199,76.2802548 191.88391,60.4503564 C184.767819,44.6204581 191.88391,71 165.442278,42.8559526 C139.000647,14.7119052 154,56 128,35 C102,14 95.498968,33.0907808 88.1985109,43.9360766 C72,68 74.5424513,35 62.4949165,62.0229784 C60.0778562,67.4445164 68,75.9248097 50.9754836,75.9248097 C33.9509672,75.9248097 33.1638143,80.9048112 42.069649,92.4524056 C50.9754836,104 38.6324826,101.780666 37.4779051,106.686483 C35.8574016,113.572028 14,87.1776763 35,128.133622 C40.1573933,138.191999 50.9754836,128.490548 40.6593223,160.200104 C39.9302287,162.441173 41.057594,166.200993 43.3309095,166.71652 C62.4949165,171.062401 56.7714204,181.721313 59.475992,191.101299 C65.515625,212.047935 69.1484375,187.797349 74.5424513,204.353064 C82.0152141,227.289033 104.750996,193.373612 128,221.267244 Z"/>
</svg>
