<svg xmlns="http://www.w3.org/2000/svg" width="256" height="256" viewBox="0 0 256 256">
  <path fill="#D8D8D8" fill-rule="evenodd" d="M60.4108102,112.771351 C58.2297053,108.486984 57,103.637099 57,98.5 C57,81.1030304 71.1030304,67 88.5,67 L130.5,67 C146.713938,67 160.066694,79.2501734 161.807749,95 L178.5,95 C200.867532,95 219,113.132468 219,135.5 C219,157.867532 200.867532,176 178.5,176 L160.12764,176 C152.701511,184.575295 141.734259,190 129.5,190 L77.5,190 C55.1324676,190 37,171.867532 37,149.5 C37,133.238745 46.583605,119.21586 60.4108102,112.771351 Z"/>
</svg>
