<svg xmlns="http://www.w3.org/2000/svg" width="256" height="256" viewBox="0 0 256 256">
  <path fill="#D8D8D8" fill-rule="evenodd" d="M206.587632,144 C206.858435,145.458718 207,146.962827 207,148.5 C207,162.030976 196.030976,173 182.5,173 L72.5,173 C58.9690236,173 48,162.030976 48,148.5 C48,142.144346 50.4200827,136.353932 54.3890076,132 L39.5,132 C25.9690236,132 15,121.030976 15,107.5 C15,93.9690236 25.9690236,83 39.5,83 L149.5,83 C158.464875,83 166.305142,87.8150209 170.575737,95 L216.5,95 C230.030976,95 241,105.969024 241,119.5 C241,133.030976 230.030976,144 216.5,144 L206.587632,144 Z"/>
</svg>
