<svg xmlns="http://www.w3.org/2000/svg" width="256" height="256" viewBox="0 0 256 256">
  <path fill="#D8D8D8" fill-rule="evenodd" d="M182.272643,122.947195 C189.272545,126.890634 194,134.393239 194,143 C194,155.702549 183.702549,166 171,166 L85,166 C72.2974508,166 62,155.702549 62,143 C62,130.971225 71.2340193,121.09917 83.0001564,120.085738 C83.0000522,120.057171 83,120.028591 83,120 C83,107.297451 93.2974508,97 106,97 L119.347254,97 C123.192498,92.7037545 128.780501,90 135,90 L165,90 C176.59798,90 186,99.4020203 186,111 C186,115.438682 184.622903,119.555727 182.272644,122.947196 Z"/>
</svg>
