<svg xmlns="http://www.w3.org/2000/svg" xmlns:xlink="http://www.w3.org/1999/xlink" width="256" height="256" viewBox="0 0 256 256">
  <defs>
    <path id="earth-a" d="M250,256 C250,188.068976 195.378739,133 128,133 C60.6212605,133 6,188.068976 6,256 L250,256 Z"/>
  </defs>
  <g fill="none" fill-rule="evenodd">
    <mask id="earth-b" fill="#fff">
      <use xlink:href="#earth-a"/>
    </mask>
    <use fill="#69B5FF" xlink:href="#earth-a"/>
    <path fill="#007432" d="M73,142 L103,132 L112,131 L118,132 L125,132 L130,133 L132,133 L134,133 L135,133 L135,135 L136,135.933112 L136,137 L135,138 L135,139 L135,141.129265 L136,141.129265 L137,141.129265 L137,142 L138,143 L138,145 L137,146 L137,147 L136,147 L135,146 C135,145.333333 135,145 135,145 C135,145 136,144 136,144 C136,144 136,143.666667 136,143 L135,144 L134,145 L133,145 L132,144 L131,143 L130,143 L129,144 L128,145 L126,146 L125,148 L124,149 L124,151 L123,154 L125,155 L125,156 L125,158 L127,158 L129,159 L130,159 L131,159 L132,160 L133,160 L136,161 L137,162 L138,162 L140,162 L141,162 L141,163 L142,164 L142,166 L143,168 L144,169 L146,169 L147,169 C147,167.666667 147,167 147,167 C147,167 147,166 147,166 C147,166 146,165 146,164 C146,163 146,163 146,163 C146,163 146,162 146,161 C146,160.333333 145.666667,160 145,160 C145.666667,158.956259 146,158.289593 146,158 C146,157.710407 146,157.377074 146,157 L146,155 C145.333333,154.333333 145,154 145,154 C145,154 144,152 144,152 C144,152 143,150 143,150 C143,150 143,148 142,148 C141,148 142,146 142,146 C142,146 142.333333,145.666667 143,145 L145,145 L146,145 C148,145.666667 149.333333,146 150,146 C150.666667,146 151.333333,146.333333 152,147 L153,148 L155,149 L156,150 L157,151 C157.666667,150.333333 158,150 158,150 C158,150 157.666667,149.333333 157,148 L158,146 L160,147 L161,148 L162,149 C163.333333,149.666667 164,150 164,150 C164,150 164.666667,150.333333 166,151 L168,153 L171,154 L172,155 L174,156 L176,157 L178,159 L179,161 L180,162 L181,164 L183,165 L184,165 L185,165 L187,166 L187,168 L188,169 L188,170 L187,171 L186,171 C184.666667,171 184,170.666667 184,170 C184,169.333333 183.666667,169.333333 183,170 L181,170 L181,171 L179,171 C178.333333,170.333333 178,170 178,170 C178,170 178,169.333333 178,168 L177,166 L178,164 L178,163 L176,164 L175,164 L175,166 L173,166 L171,167 L169,167 L167,169 L167,171 L169,170 L172,170 L173,172 L172,173 L172,175 L174,175 L175,175 L177,175 L179,174 L180,174 L181,176 L180,177 L179,179 C178.333333,179.666667 177.666667,180 177,180 C176.333333,180 176.333333,180.333333 177,181 L176,183 L174,183 L173,181 L172,181 L170,182 L169,184 C168.333333,184.666667 168,185 168,185 C168,185 167.666667,185.666667 167,187 L168,189 L169,190 L167,192 L165,194 L163,196 L162,199 L161,201 L161,205 L162,208 L163,210 L161,212 L158,212 L156,217 L155,218 L153,219 L152,222 L155,225 L155,227 L157,231 L157,232.969192 L157,235 L157,238 L155,238 L153,236 L152,235 L150,231 L150,228 C149.333333,227.333333 149,227 149,227 C149,227 148.333333,226.666667 147,226 L142,226 L140,226 L136,226 L135,227 L136,228 L135,230 L133,230 L130,228 L126,228 L123,228 L119,230 L117,232.969192 L116,235 L116,237 L116,240 L116,243 L116,246.634146 L119,250 L119,253 L121,256 L124,256 L131,256 L133,253 L135,250 L136,250 L139,250 L142,248 L142,250 L141,255.303573 L140,257 L135,258.95679 C131.666667,257.652263 129.333333,257 128,257 C126.666667,257 125.333333,257 124,257 L119,257 L112,257 L105,257 L103,256 L100,254 L96,253 L97,250 L97,246.634146 L96,243 C94.6666667,241.666667 94,240.666667 94,240 C94,239.333333 93.3333333,238.666667 92,238 C90.6666667,237.333333 90,236.666667 90,236 C90,235 88,232.969192 87,232.969192 C86.3333333,232.969192 86,232.312795 86,231 C84.6666667,229 84,228 84,228 C84,228 83.6666667,227 83,225 C82.3333333,223 82,222 82,222 C82,222 81.3333333,221 80,219 L78.5,218 L78.5,221 C79.5,222.333333 80,223.333333 80,224 C80,224.666667 80.6666667,225.666667 82,227 C82.6666667,229 83,230 83,230 C83,230 83.3333333,230.989731 84,232.969192 L85,236 L87,239 L89,241 L88,243 L85,242 L84,240 L83,237 C82.3333333,235.666667 82,235 82,235 C82,235 81,232.969192 81,232.969192 C81,232.969192 80.6666667,231.979461 80,230 L78,228 L77,226 L76,224 L75,221 L75,219 L75,217 L74,214 L73,212 L71,210 L70,207 C69.3333333,205 69,204 69,204 C69,204 68.6666667,203 68,201 L68,197 L68,193 L69,188 L71,184 C71.6666667,182 72,181 72,181 C72,181 72.6666667,180 74,178 L75,175 L75,172 L74,170 L73,167 L74,163 L75,160 L75,158.434389 L72,161 L73,164 L71,164 L71,160 L71,157 L72,152 L75,148 L75,145 L75,143 L73,142 Z M146,248 L146,247 C146,246.333333 146,246 146,246 C146,246 147,245 147,245 C147,245 147,244 147,244 C147,244 149,243 149,243 C149,243 150,242.666667 152,242 L156,242 L161,242 L161,243 L165,244 L165,245 L168,245 L171,245 L172,246 L171,247 L169,248 L167,249 L166,249 L163,249 C163,248.333333 163,248 163,248 C163,248 163,247 162,247 C161.333333,247 160.666667,247 160,247 C158.666667,246.333333 158,246 158,246 C158,246 157.333333,246 156,246 L154,246 L152,246 L150,247 L146,248 Z M172,251 L172,250 C172.666667,248.666667 173,248 173,248 C173,248 173.333333,247.666667 174,247 C175.333333,246.333333 176,246 176,246 C176,246 176.666667,245.666667 178,245 L181,245 L184,245 L185,246 L183,247 L182,248 C180.666667,248.666667 179.666667,249 179,249 C178.333333,249 178,249.333333 178,250 L175,250 L172,251 Z M188,246.634146 L187,247 C186.333333,246.333333 186,246 186,246 C186,246 186,245.666667 186,245 L186,244 L188,244 L189,244 L190,245 L189,246 L188,246.634146 Z M160,238 L160,236 L162,237 L163,238 C163,238 163,241 163,241 C163,241 162.666667,241 162,241 L162,240 L161,238 L160,238 Z M170,241 C170,241 169,240.666667 167,240 C167,239.333333 167,239 167,239 C167,239 169,239 169,239 C169,239 170,239 170,240 C170,241 170,241 170,241 Z M162,232 L164,232 L165,233 L165,234 L164,234 L162,232.969192 L162,232 Z" mask="url(#earth-b)"/>
  </g>
</svg>
