<svg xmlns="http://www.w3.org/2000/svg" xmlns:xlink="http://www.w3.org/1999/xlink" width="256" height="256" viewBox="0 0 256 256">
  <defs>
    <path id="earth-a" d="M244,123 C244,55.0689758 189.378739,0 122,0 C54.6212605,0 0,55.0689758 0,123 L244,123 Z"/>
  </defs>
  <g fill="none" fill-rule="evenodd" transform="translate(6 133)">
    <mask id="earth-b" fill="#fff">
      <use xlink:href="#earth-a"/>
    </mask>
    <use fill="#69B5FF" xlink:href="#earth-a"/>
    <path fill="#007432" d="M67,9 L97,-1 L106,-2 L112,-1 L119,-1 L124,8.43769499e-14 L126,8.43769499e-14 L128,8.57092175e-14 L129,8.43769499e-14 L129,2 L130,2.93311222 L130,4 L129,5 L129,6 L129,8.12926464 L130,8.12926464 L131,8.12926464 L131,9 L132,10 L132,12 L131,13 L131,14 L130,14 L129,13 C129,12.3333333 129,12 129,12 C129,12 130,11 130,11 C130,11 130,10.6666667 130,10 L129,11 L128,12 L127,12 L126,11 L125,10 L124,10 L123,11 L122,12 L120,13 L119,15 L118,16 L118,18 L117,21 L119,22 L119,23 L119,25 L121,25 L123,26 L124,26 L125,26 L126,27 L127,27 L130,28 L131,29 L132,29 L134,29 L135,29 L135,30 L136,31 L136,33 L137,35 L138,36 L140,36 L141,36 C141,34.6666667 141,34 141,34 C141,34 141,33 141,33 C141,33 140,32 140,31 C140,30 140,30 140,30 C140,30 140,29 140,28 C140,27.3333333 139.666667,27 139,27 C139.666667,25.9562594 140,25.2895928 140,25 C140,24.7104072 140,24.3770739 140,24 L140,22 C139.333333,21.3333333 139,21 139,21 C139,21 138,19 138,19 C138,19 137,17 137,17 C137,17 137,15 136,15 C135,15 136,13 136,13 C136,13 136.333333,12.6666667 137,12 L139,12 L140,12 C142,12.6666667 143.333333,13 144,13 C144.666667,13 145.333333,13.3333333 146,14 L147,15 L149,16 L150,17 L151,18 C151.666667,17.3333333 152,17 152,17 C152,17 151.666667,16.3333333 151,15 L152,13 L154,14 L155,15 L156,16 C157.333333,16.6666667 158,17 158,17 C158,17 158.666667,17.3333333 160,18 L162,20 L165,21 L166,22 L168,23 L170,24 L172,26 L173,28 L174,29 L175,31 L177,32 L178,32 L179,32 L181,33 L181,35 L182,36 L182,37 L181,38 L180,38 C178.666667,38 178,37.6666667 178,37 C178,36.3333333 177.666667,36.3333333 177,37 L175,37 L175,38 L173,38 C172.333333,37.3333333 172,37 172,37 C172,37 172,36.3333333 172,35 L171,33 L172,31 L172,30 L170,31 L169,31 L169,33 L167,33 L165,34 L163,34 L161,36 L161,38 L163,37 L166,37 L167,39 L166,40 L166,42 L168,42 L169,42 L171,42 L173,41 L174,41 L175,43 L174,44 L173,46 C172.333333,46.6666667 171.666667,47 171,47 C170.333333,47 170.333333,47.3333333 171,48 L170,50 L168,50 L167,48 L166,48 L164,49 L163,51 C162.333333,51.6666667 162,52 162,52 C162,52 161.666667,52.6666667 161,54 L162,56 L163,57 L161,59 L159,61 L157,63 L156,66 L155,68 L155,72 L156,75 L157,77 L155,79 L152,79 L150,84 L149,85 L147,86 L146,89 L149,92 L149,94 L151,98 L151,99.9691921 L151,102 L151,105 L149,105 L147,103 L146,102 L144,98 L144,95 C143.333333,94.3333333 143,94 143,94 C143,94 142.333333,93.6666667 141,93 L136,93 L134,93 L130,93 L129,94 L130,95 L129,97 L127,97 L124,95 L120,95 L117,95 L113,97 L111,99.9691921 L110,102 L110,104 L110,107 L110,110 L110,113.634146 L113,117 L113,120 L115,123 L118,123 L125,123 L127,120 L129,117 L130,117 L133,117 L136,115 L136,117 L135,122.303573 L134,124 L129,125.95679 C125.666667,124.652263 123.333333,124 122,124 C120.666667,124 119.333333,124 118,124 L113,124 L106,124 L99,124 L97,123 L94,121 L90,120 L91,117 L91,113.634146 L90,110 C88.6666667,108.666667 88,107.666667 88,107 C88,106.333333 87.3333333,105.666667 86,105 C84.6666667,104.333333 84,103.666667 84,103 C84,102 82,99.9691921 81,99.9691921 C80.3333333,99.9691921 80,99.3127947 80,98 C78.6666667,96 78,95 78,95 C78,95 77.6666667,94 77,92 C76.3333333,90 76,89 76,89 C76,89 75.3333333,88 74,86 L72.5,85 L72.5,88 C73.5,89.3333333 74,90.3333333 74,91 C74,91.6666667 74.6666667,92.6666667 76,94 C76.6666667,96 77,97 77,97 C77,97 77.3333333,97.9897307 78,99.9691921 L79,103 L81,106 L83,108 L82,110 L79,109 L78,107 L77,104 C76.3333333,102.666667 76,102 76,102 C76,102 75,99.9691921 75,99.9691921 C75,99.9691921 74.6666667,98.9794614 74,97 L72,95 L71,93 L70,91 L69,88 L69,86 L69,84 L68,81 L67,79 L65,77 L64,74 C63.3333333,72 63,71 63,71 C63,71 62.6666667,70 62,68 L62,64 L62,60 L63,55 L65,51 C65.6666667,49 66,48 66,48 C66,48 66.6666667,47 68,45 L69,42 L69,39 L68,37 L67,34 L68,30 L69,27 L69,25.4343891 L66,28 L67,31 L65,31 L65,27 L65,24 L66,19 L69,15 L69,12 L69,10 L67,9 Z M140,115 L140,114 C140,113.333333 140,113 140,113 C140,113 141,112 141,112 C141,112 141,111 141,111 C141,111 143,110 143,110 C143,110 144,109.666667 146,109 L150,109 L155,109 L155,110 L159,111 L159,112 L162,112 L165,112 L166,113 L165,114 L163,115 L161,116 L160,116 L157,116 C157,115.333333 157,115 157,115 C157,115 157,114 156,114 C155.333333,114 154.666667,114 154,114 C152.666667,113.333333 152,113 152,113 C152,113 151.333333,113 150,113 L148,113 L146,113 L144,114 L140,115 Z M166,118 L166,117 C166.666667,115.666667 167,115 167,115 C167,115 167.333333,114.666667 168,114 C169.333333,113.333333 170,113 170,113 C170,113 170.666667,112.666667 172,112 L175,112 L178,112 L179,113 L177,114 L176,115 C174.666667,115.666667 173.666667,116 173,116 C172.333333,116 172,116.333333 172,117 L169,117 L166,118 Z M182,113.634146 L181,114 C180.333333,113.333333 180,113 180,113 C180,113 180,112.666667 180,112 L180,111 L182,111 L183,111 L184,112 L183,113 L182,113.634146 Z M154,105 L154,103 L156,104 L157,105 C157,105 157,108 157,108 C157,108 156.666667,108 156,108 L156,107 L155,105 L154,105 Z M164,108 C164,108 163,107.666667 161,107 C161,106.333333 161,106 161,106 C161,106 163,106 163,106 C163,106 164,106 164,107 C164,108 164,108 164,108 Z M156,99 L158,99 L159,100 L159,101 L158,101 L156,99.9691921 L156,99 Z" mask="url(#earth-b)"/>
  </g>
</svg>
