<?xml version="1.0" encoding="UTF-8"?>
<svg width="256px" height="256px" viewBox="0 0 256 256" version="1.1" xmlns="http://www.w3.org/2000/svg" xmlns:xlink="http://www.w3.org/1999/xlink">
    <!-- Generator: Sketch 52.6 (67491) - http://www.bohemiancoding.com/sketch -->
    <title>Moon</title>
    <desc>Created with Sketch.</desc>
    <defs>
        <path d="M120.62069,92.7356322 C113.218804,92.7356322 107.218391,86.7352186 107.218391,79.3333333 C107.218391,71.9314481 113.218804,65.9310345 120.62069,65.9310345 C128.022575,65.9310345 134.022989,71.9314481 134.022989,79.3333333 C134.022989,86.7352186 128.022575,92.7356322 120.62069,92.7356322 Z M82.8505747,102.482759 C78.8131827,102.482759 75.5402299,99.2098058 75.5402299,95.1724138 C75.5402299,91.1350218 78.8131827,87.862069 82.8505747,87.862069 C86.8879667,87.862069 90.1609195,91.1350218 90.1609195,95.1724138 C90.1609195,99.2098058 86.8879667,102.482759 82.8505747,102.482759 Z M38.9885057,119.54023 C33.6053165,119.54023 29.2413793,115.176293 29.2413793,109.793103 C29.2413793,104.409914 33.6053165,100.045977 38.9885057,100.045977 C44.371695,100.045977 48.7356322,104.409914 48.7356322,109.793103 C48.7356322,115.176293 44.371695,119.54023 38.9885057,119.54023 Z M99.908046,176.804598 C92.5061607,176.804598 86.5057471,170.804184 86.5057471,163.402299 C86.5057471,156.000414 92.5061607,150 99.908046,150 C107.309931,150 113.310345,156.000414 113.310345,163.402299 C113.310345,170.804184 107.309931,176.804598 99.908046,176.804598 Z M82.8505747,226.758621 C78.8131827,226.758621 75.5402299,223.485668 75.5402299,219.448276 C75.5402299,215.410884 78.8131827,212.137931 82.8505747,212.137931 C86.8879667,212.137931 90.1609195,215.410884 90.1609195,219.448276 C90.1609195,223.485668 86.8879667,226.758621 82.8505747,226.758621 Z M37.1609195,187.770115 C29.4225849,187.770115 23.1494253,181.496955 23.1494253,173.758621 C23.1494253,166.020286 29.4225849,159.747126 37.1609195,159.747126 C44.8992541,159.747126 51.1724138,166.020286 51.1724138,173.758621 C51.1724138,181.496955 44.8992541,187.770115 37.1609195,187.770115 Z M106.609195,131.724138 C102.235354,131.724138 98.6896552,128.178439 98.6896552,123.804598 C98.6896552,119.430756 102.235354,115.885057 106.609195,115.885057 C110.983037,115.885057 114.528736,119.430756 114.528736,123.804598 C114.528736,128.178439 110.983037,131.724138 106.609195,131.724138 Z M178.494253,137.816092 C170.755918,137.816092 164.482759,131.542932 164.482759,123.804598 C164.482759,116.066263 170.755918,109.793103 178.494253,109.793103 C186.232587,109.793103 192.505747,116.066263 192.505747,123.804598 C192.505747,131.542932 186.232587,137.816092 178.494253,137.816092 Z M143.770115,225.54023 C130.98504,225.54023 120.62069,215.175879 120.62069,202.390805 C120.62069,189.60573 130.98504,179.241379 143.770115,179.241379 C156.555189,179.241379 166.91954,189.60573 166.91954,202.390805 C166.91954,215.175879 156.555189,225.54023 143.770115,225.54023 Z" id="path-1"></path>
        <filter x="-2.1%" y="-2.2%" width="104.1%" height="104.4%" filterUnits="objectBoundingBox" id="filter-2">
            <feGaussianBlur stdDeviation="2.5" in="SourceAlpha" result="shadowBlurInner1"></feGaussianBlur>
            <feOffset dx="1" dy="2" in="shadowBlurInner1" result="shadowOffsetInner1"></feOffset>
            <feComposite in="shadowOffsetInner1" in2="SourceAlpha" operator="arithmetic" k2="-1" k3="1" result="shadowInnerInner1"></feComposite>
            <feColorMatrix values="0 0 0 0 0   0 0 0 0 0   0 0 0 0 0  0 0 0 0.145125679 0" type="matrix" in="shadowInnerInner1"></feColorMatrix>
        </filter>
    </defs>
    <g id="Moon" stroke="none" stroke-width="1" fill="none" fill-rule="evenodd">
        <g transform="translate(22.000000, 0.000000)">
            <g id="Flag" transform="translate(176.721408, 37.144696) rotate(27.000000) translate(-176.721408, -37.144696) translate(156.221408, 6.644696)">
                <polygon id="Flag-Front" fill="#C94545" points="18.288327 2.43456748 40.2343194 2.43456748 40.2343194 23.128391 18.288327 23.128391"></polygon>
                <polygon id="Flg-Back" fill="#EB5151" points="1.2192218 -9.09494702e-13 23.1652142 -9.09494702e-13 23.1652142 21.9111073 1.2192218 21.9111073"></polygon>
                <polygon id="Flag-Pole" fill="#8F8D92" points="9.09494702e-13 -4.54747351e-13 2.4384436 -4.54747351e-13 2.4384436 60.8641869 9.09494702e-13 60.8641869"></polygon>
            </g>
            <circle fill="#DAD9D7" cx="106" cy="150" r="106"></circle>
            <path d="M44.2970582,236.200147 C61.677035,248.663034 82.9816974,256 106,256 C164.542183,256 212,208.542183 212,150 L44.2970582,236.200147 Z" id="Shadow" fill="#C9C7C5"></path>
            <g id="Shape">
                <use fill="#C7C7C7" fill-rule="evenodd" xlink:href="#path-1"></use>
                <use fill="black" fill-opacity="1" filter="url(#filter-2)" xlink:href="#path-1"></use>
            </g>
        </g>
    </g>
</svg>