<svg xmlns="http://www.w3.org/2000/svg" xmlns:xlink="http://www.w3.org/1999/xlink" width="256" height="256" viewBox="0 0 256 256">
  <defs>
    <path id="ship-a" d="M58,31 L68,63 L68,95 L-3.69482223e-13,95 L-3.69482223e-13,63 L10,31 L10,0 L58,0 L58,31 Z"/>
    <path id="ship-c" d="M18,9.99503354 L-1.79412041e-13,9.99503354 C-1.79412041e-13,10.0661708 -1.79412041e-13,9.37310638 -1.79412041e-13,7.9158404 C-1.79412041e-13,3.54404247 4.30557963,-1.0658141e-14 9,-1.0658141e-14 C13.6944204,-1.0658141e-14 18,3.54404247 18,7.9158404 C18,9.37310638 18,10.0661708 18,9.99503354 Z M0,69 L18,69 L16,80 L2,80 L0,69 Z"/>
    <path id="ship-e" d="M18,9.99503354 L-1.79412041e-13,9.99503354 C-1.79412041e-13,10.0661708 -1.79412041e-13,9.37310638 -1.79412041e-13,7.9158404 C-1.79412041e-13,3.54404247 4.30557963,-1.0658141e-14 9,-1.0658141e-14 C13.6944204,-1.0658141e-14 18,3.54404247 18,7.9158404 C18,9.37310638 18,10.0661708 18,9.99503354 Z M0,69 L18,69 L16,80 L2,80 L0,69 Z"/>
    <polygon id="ship-g" points="0 0 68 0 65 10 3 10"/>
  </defs>
  <g fill="none" fill-rule="evenodd" transform="translate(44 3)">
    <path fill="#252525" d="M18 161L51 130 51 176 18 176 18 161zM151 161L151 176 118 176 118 130 151 161zM61 14.699575L82.0462183-.709964107C83.8049024-1.99763067 86.1950976-1.99763067 87.9537817-.709964107L109 14.699575 109 19.699575 61 19.699575 61 14.699575z"/>
    <g transform="translate(51 19)">
      <rect width="68" height="68" y="95" fill="#F85959"/>
      <mask id="ship-b" fill="#fff">
        <use xlink:href="#ship-a"/>
      </mask>
      <use fill="#FF9F68" xlink:href="#ship-a"/>
      <rect width="48" height="14" x="10" y="8" fill="#C37A50" mask="url(#ship-b)"/>
      <rect width="68" height="8" y="58" fill="#C37A50" mask="url(#ship-b)"/>
    </g>
    <g transform="translate(0 120)">
      <polygon fill="#F85959" points="0 10 18 10 18 69 0 69"/>
      <mask id="ship-d" fill="#fff">
        <use xlink:href="#ship-c"/>
      </mask>
      <use fill="#252525" xlink:href="#ship-c"/>
      <path stroke="#454545" stroke-linecap="square" stroke-width="2" d="M4.5-1.5L4.5 83M13.5-1.5L13.5 83" mask="url(#ship-d)"/>
    </g>
    <g transform="translate(151 120)">
      <polygon fill="#F85959" points="0 10 18 10 18 69 0 69"/>
      <mask id="ship-f" fill="#fff">
        <use xlink:href="#ship-e"/>
      </mask>
      <use fill="#252525" xlink:href="#ship-e"/>
      <path stroke="#454545" stroke-linecap="square" stroke-width="2" d="M4.5-1.5L4.5 83M13.5-1.5L13.5 83" mask="url(#ship-f)"/>
    </g>
    <g transform="translate(51 182)">
      <mask id="ship-h" fill="#fff">
        <use xlink:href="#ship-g"/>
      </mask>
      <use fill="#252525" xlink:href="#ship-g"/>
      <path stroke="#454545" stroke-linecap="square" stroke-width="13" d="M6.5-12.5L6.5 18M61.5-12.5L61.5 18M34.5-12.5L34.5 18" mask="url(#ship-h)"/>
    </g>
    <g transform="translate(58 96)">
      <circle cx="27" cy="52" r="17" fill="#FFF3C5"/>
      <path fill="#DBCFA1" d="M39.0208153,64.0208153 C42.0972102,60.9444204 44,56.6944204 44,52 C44,42.6111593 36.3888407,35 27,35 C22.3055796,35 18.0555796,36.9027898 14.9791847,39.9791847 C11.9027898,43.0555796 35.9444204,67.0972102 39.0208153,64.0208153 Z"/>
      <rect width="10" height="10" fill="#E9E9E9"/>
      <rect width="10" height="10" x="22" fill="#E9E9E9"/>
      <rect width="10" height="10" x="44" fill="#E9E9E9"/>
    </g>
    <path fill="#FFC7A8" fill-rule="nonzero" d="M64.937697,64.7755632 C64.6641457,65.8457237 63.5748521,66.491503 62.5046916,66.2179518 C61.4345311,65.9444005 60.7887517,64.8551069 61.062303,63.7849464 L63.562303,54.0046916 C63.7886095,53.1193574 64.5861996,52.5 65.5,52.5 L72,52.5 C73.1045695,52.5 74,53.3954305 74,54.5 C74,55.6045695 73.1045695,56.5 72,56.5 L67.0530721,56.5 L64.937697,64.7755632 Z"/>
    <g transform="translate(2 202)">
      <path fill="#D4B759" d="M5.5,3.12162769 L5.5,3.12162769 C7.59370502,1.6261241 10.406295,1.6261241 12.5,3.12162769 L12.5,3.12162769 C14.696443,4.69051553 16,7.22357362 16,9.92279032 L16,20.2074141 C16,21.1129199 15.6402892,21.9813384 15,22.6216277 L15,22.6216277 C14.4477153,23.1739124 13.5522847,23.1739124 13,22.6216277 L12.7071068,22.3287345 C12.2543539,21.8759816 12,21.2619169 12,20.6216277 L12,20.6216277 C12,19.996883 11.6877687,19.4134735 11.1679497,19.0669275 L10.5,18.6216277 C9.59167309,18.0160764 8.40832691,18.0160764 7.5,18.6216277 L7.5,18.6216277 C6.56288303,19.2463723 6,20.2981289 6,21.4244033 L6,32.2074141 C6,33.1129199 5.64028925,33.9813384 5,34.6216277 L5,34.6216277 C4.44771525,35.1739124 3.55228475,35.1739124 3,34.6216277 L3,34.6216277 C2.35971075,33.9813384 2,33.1129199 2,32.2074141 L2,9.92279032 C2,7.22357362 3.30355702,4.69051553 5.5,3.12162769 Z"/>
      <path fill="#FFE07D" d="M3.5,1.5 L3.5,1.5 C5.59370502,0.00449641743 8.40629498,0.00449641743 10.5,1.5 L10.5,1.5 C12.696443,3.06888784 14,5.60194593 14,8.30116263 L14,20.5857864 C14,21.4912922 13.6402892,22.3597108 13,23 L13,23 C12.4477153,23.5522847 11.5522847,23.5522847 11,23 L11,23 C10.3597108,22.3597108 10,21.4912922 10,20.5857864 L10,19.8027756 C10,18.6765012 9.43711697,17.6247446 8.5,17 L8.5,17 C7.59167309,16.3944487 6.40832691,16.3944487 5.5,17 L5.5,17 C4.56288303,17.6247446 4,18.6765012 4,19.8027756 L4,28.5857864 C4,29.4912922 3.64028925,30.3597108 3,31 L3,31 C2.44771525,31.5522847 1.55228475,31.5522847 1,31 L1,31 C0.359710753,30.3597108 -3.88255528e-14,29.4912922 -3.33066907e-14,28.5857864 L1.41220369e-13,8.30116263 C1.63664977e-13,5.60194593 1.30355702,3.06888784 3.5,1.5 Z"/>
      <path fill="#F6C72E" d="M4,1.9006177 L4,1.9006177 C5.81552571,0.685794954 8.18447429,0.685794954 10,1.9006177 L10,1.9006177 C11.8746875,3.15502739 13,5.26200466 13,7.51766353 L13,19.1867238 C13,19.9360363 12.6897043,20.6518955 12.1428571,21.1641721 L12.1428571,21.1641721 C11.660688,21.6158595 10.9107406,21.6158595 10.4285714,21.1641721 L10.4285714,21.1641721 C9.88172423,20.6518955 9.57142857,19.9360363 9.57142857,19.1867238 L9.57142857,16.6652415 C9.57142857,15.7222998 9.08549921,14.8459188 8.28571429,14.346436 L8.28571429,14.346436 C7.49898165,13.8551047 6.50101835,13.8551047 5.71428571,14.346436 L5.12215944,14.7162315 C4.69070959,14.9856811 4.42857143,15.4584514 4.42857143,15.9671281 L4.42857143,15.9671281 C4.42857143,16.4888343 4.21252918,16.9872488 3.83178876,17.3439195 L3.57142857,17.5878203 C3.08925941,18.0395077 2.33931202,18.0395077 1.85714286,17.5878203 L1.85714286,17.5878203 C1.31029566,17.0755437 1,16.3596844 1,15.6103719 L1,7.51766353 C1,5.26200466 2.12531249,3.15502739 4,1.9006177 Z"/>
    </g>
    <g transform="matrix(-1 0 0 1 169 202)">
      <path fill="#D4B759" d="M5.5,3.12162769 L5.5,3.12162769 C7.59370502,1.6261241 10.406295,1.6261241 12.5,3.12162769 L12.5,3.12162769 C14.696443,4.69051553 16,7.22357362 16,9.92279032 L16,26.2074141 C16,27.1129199 15.6402892,27.9813384 15,28.6216277 L15,28.6216277 C14.4477153,29.1739124 13.5522847,29.1739124 13,28.6216277 L13,28.6216277 C12.3597108,27.9813384 12,27.1129199 12,26.2074141 L12,21.4244033 C12,20.2981289 11.437117,19.2463723 10.5,18.6216277 L10.5,18.6216277 C9.59167309,18.0160764 8.40832691,18.0160764 7.5,18.6216277 L7.5,18.6216277 C6.56288303,19.2463723 6,20.2981289 6,21.4244033 L6,29.2074141 C6,30.1129199 5.64028925,30.9813384 5,31.6216277 L5,31.6216277 C4.44771525,32.1739124 3.55228475,32.1739124 3,31.6216277 L3,31.6216277 C2.35971075,30.9813384 2,30.1129199 2,29.2074141 L2,9.92279032 C2,7.22357362 3.30355702,4.69051553 5.5,3.12162769 Z"/>
      <path fill="#FFE07D" d="M3.5,1.5 L3.5,1.5 C5.59370502,0.00449641743 8.40629498,0.00449641743 10.5,1.5 L10.5,1.5 C12.696443,3.06888784 14,5.60194593 14,8.30116263 L14,24.5857864 C14,25.4912922 13.6402892,26.3597108 13,27 L13,27 C12.4477153,27.5522847 11.5522847,27.5522847 11,27 L11,27 C10.3597108,26.3597108 10,25.4912922 10,24.5857864 L10,19.8027756 C10,18.6765012 9.43711697,17.6247446 8.5,17 L8.5,17 C7.59167309,16.3944487 6.40832691,16.3944487 5.5,17 L5.5,17 C4.56288303,17.6247446 4,18.6765012 4,19.8027756 L4,25.5857864 C4,26.4912922 3.64028925,27.3597108 3,28 L3,28 C2.44771525,28.5522847 1.55228475,28.5522847 1,28 L1,28 C0.359710753,27.3597108 -1.96928248e-13,26.4912922 -1.82964754e-13,25.5857864 L1.0658141e-13,8.30116263 C1.50602493e-13,5.60194593 1.30355702,3.06888784 3.5,1.5 Z"/>
      <path fill="#F6C72E" d="M4,1.9006177 L4,1.9006177 C5.81552571,0.685794954 8.18447429,0.685794954 10,1.9006177 L10,1.9006177 C11.8746875,3.15502739 13,5.26200466 13,7.51766353 L13,16.1867238 C13,16.9360363 12.6897043,17.6518955 12.1428571,18.1641721 L12.1428571,18.1641721 C11.660688,18.6158595 10.9107406,18.6158595 10.4285714,18.1641721 L10.3785216,18.1172864 C9.86360562,17.6349223 9.57142857,16.9608631 9.57142857,16.2553041 L9.57142857,16.2553041 C9.57142857,15.567366 9.21691109,14.9279883 8.6334153,14.5635827 L8.28571429,14.346436 C7.49898165,13.8551047 6.50101835,13.8551047 5.71428571,14.346436 L5.71428571,14.346436 C4.91450079,14.8459188 4.42857143,15.7222998 4.42857143,16.6652415 L4.42857143,17.6103719 C4.42857143,18.3596844 4.11827577,19.0755437 3.57142857,19.5878203 L3.57142857,19.5878203 C3.08925941,20.0395077 2.33931202,20.0395077 1.85714286,19.5878203 L1.85714286,19.5878203 C1.31029566,19.0755437 1,18.3596844 1,17.6103719 L1,7.51766353 C1,5.26200466 2.12531249,3.15502739 4,1.9006177 Z"/>
    </g>
  </g>
</svg>
